<svg xmlns="http://www.w3.org/2000/svg" data-name="Layer 1" viewBox="0 0 24 24"><path d="M23.58 18.677L14.844 1.754a3.222 3.222 0 00-5.697.016L.423 18.67a3.604 3.604 0 00.099 3.567 3.603 3.603 0 003.114 1.762h16.728a3.604 3.604 0 003.114-1.762 3.596 3.596 0 00.102-3.561zm-2.673 2.016a.614.614 0 01-.543.307H3.636c-.312 0-.474-.192-.543-.307s-.163-.348-.016-.623l.009-.017 4.813-9.325 1.783 2.823a.962.962 0 001.63-.004L13 10.846l.98 1.617a.963.963 0 001.654-.012l.721-1.231 4.568 8.85a.614.614 0 01-.016.623z"/></svg>