<svg xmlns="http://www.w3.org/2000/svg" viewBox="0 0 512 512"><path d="M233.244 333.369h-73.956a5.69 5.69 0 00-5.689 5.689v143.36a5.69 5.69 0 005.689 5.689h73.956a5.69 5.69 0 005.689-5.689v-143.36a5.689 5.689 0 00-5.689-5.689zm0-153.6h-73.956a5.69 5.69 0 00-5.689 5.689v108.089a5.69 5.69 0 005.689 5.689h73.956a5.69 5.69 0 005.689-5.689V185.458a5.689 5.689 0 00-5.689-5.689zm119.467 153.6h-73.956a5.69 5.69 0 00-5.689 5.689v143.36a5.69 5.69 0 005.689 5.689h73.956a5.69 5.69 0 005.689-5.689v-143.36a5.689 5.689 0 00-5.689-5.689zm-238.933-153.6H5.689A5.69 5.69 0 000 185.458v108.089a5.69 5.69 0 005.689 5.689h108.089a5.69 5.69 0 005.689-5.689V185.458a5.69 5.69 0 00-5.689-5.689zM472.175 54.613h-69.402V40.96c0-9.425-7.641-17.067-17.067-17.067S368.64 31.535 368.64 40.96v13.653H143.36V40.96c0-9.425-7.641-17.067-17.067-17.067s-17.067 7.641-17.067 17.067v13.653H39.825C17.83 54.613 0 72.443 0 94.438v45.509a5.69 5.69 0 005.689 5.689h500.622a5.69 5.69 0 005.689-5.689V94.438c0-21.995-17.83-39.825-39.825-39.825zM113.778 333.369H5.689A5.69 5.69 0 000 339.058v109.236c0 21.988 17.826 39.813 39.813 39.813h73.965a5.69 5.69 0 005.689-5.689v-143.36a5.69 5.69 0 00-5.689-5.689zm392.533 0H398.222a5.69 5.69 0 00-5.689 5.689v143.36a5.69 5.69 0 005.689 5.689h73.965c21.988 0 39.813-17.826 39.813-39.813V339.058a5.689 5.689 0 00-5.689-5.689zm-153.6-153.6h-73.956a5.69 5.69 0 00-5.689 5.689v108.089a5.69 5.69 0 005.689 5.689h73.956a5.69 5.69 0 005.689-5.689V185.458a5.689 5.689 0 00-5.689-5.689zm153.6 0H398.222a5.69 5.69 0 00-5.689 5.689v108.089a5.69 5.69 0 005.689 5.689h108.089a5.69 5.69 0 005.689-5.689V185.458a5.689 5.689 0 00-5.689-5.689z"/></svg>