<svg xmlns="http://www.w3.org/2000/svg" viewBox="0 0 511.999 511.999"><path d="M419.604 74.587L322.657 1.535a7.613 7.613 0 00-4.58-1.532h-33.416c-.02 0-.04-.003-.059-.003l-.059.003H138.552c-.02 0-.04-.003-.059-.003l-.059.003h-33.421c-1.653 0-3.26.538-4.58 1.532L3.488 74.587a7.61 7.61 0 00-1.794 10.235l43.678 66.964a7.61 7.61 0 008.269 3.212l43.761-11.252v33.706c0 4.203 3.406 7.61 7.61 7.61s7.61-3.407 7.61-7.61v-43.52a7.612 7.612 0 00-9.506-7.37L55.137 138.9 18.326 82.462l89.233-67.24h23.694c3.851 40.921 38.384 73.051 80.295 73.051s76.444-32.131 80.295-73.051h23.689l89.234 67.24-36.812 56.436-47.979-12.338a7.609 7.609 0 00-9.506 7.371v43.86c0 4.203 3.406 7.61 7.61 7.61s7.61-3.407 7.61-7.61v-34.046l43.762 11.253a7.607 7.607 0 008.269-3.212l43.678-66.964a7.61 7.61 0 00-1.794-10.235zm-208.056-1.533c-33.51 0-61.201-25.321-64.987-57.832h129.975c-3.787 32.511-31.479 57.832-64.988 57.832zm-20.503 237.415h-78.422V202.817a7.61 7.61 0 10-15.22 0v115.262a7.61 7.61 0 007.61 7.61h86.032a7.61 7.61 0 100-15.22zm320.217 41.832l-25.686-91.941c-1.13-4.047-5.331-6.416-9.377-5.281a7.61 7.61 0 00-5.281 9.376l23.639 84.611-103.724 28.978-30.927-84.79a7.611 7.611 0 00-14.298 0l-30.927 84.79-103.723-28.978 40.241-144.038h203.118l9.557 34.209a7.61 7.61 0 0014.658-4.095l-11.11-39.771a7.609 7.609 0 00-7.33-5.562h-214.67a7.611 7.611 0 00-7.33 5.562l-43.843 156.93a7.611 7.611 0 005.281 9.377l117.836 32.92a7.613 7.613 0 009.197-4.721l26.192-71.807 26.192 71.807a7.609 7.609 0 009.196 4.721l117.836-32.92a7.619 7.619 0 004.584-3.595 7.616 7.616 0 00.699-5.782zm-325.003 96.202L156.253 418.5v-65.59a7.61 7.61 0 00-7.61-7.61H90.082a7.61 7.61 0 00-7.61 7.61v43.704c0 4.203 3.406 7.61 7.61 7.61s7.61-3.407 7.61-7.61V360.52h43.342v61.131c0 2.018.802 3.954 2.228 5.381l32.233 32.233c8.568 8.569 8.568 22.51 0 31.079a21.829 21.829 0 01-15.538 6.437 21.825 21.825 0 01-15.538-6.437l-18.309-18.307c-2.971-2.972-7.789-2.972-10.761 0s-2.972 7.79 0 10.761l18.308 18.307c7.025 7.025 16.366 10.894 26.302 10.894 9.935 0 19.276-3.869 26.302-10.894 14.499-14.503 14.499-38.1-.002-52.602z"/><path d="M104.243 428.719l-30.004-30.004v-65.59a7.61 7.61 0 00-7.61-7.61H8.068a7.61 7.61 0 00-7.61 7.61v93.861c0 2.018.802 3.954 2.228 5.381l48.955 48.954c7.025 7.025 16.366 10.894 26.301 10.894 9.935 0 19.276-3.869 26.301-10.894 7.026-7.025 10.895-16.365 10.895-26.301-.001-9.936-3.87-19.276-10.895-26.301zM93.481 470.56a21.829 21.829 0 01-15.538 6.437 21.827 21.827 0 01-15.538-6.437L15.68 423.836v-83.099h43.34v61.131c0 2.018.802 3.954 2.228 5.381l32.234 32.233a21.833 21.833 0 016.437 15.539 21.83 21.83 0 01-6.438 15.539z"/></svg>