<svg xmlns="http://www.w3.org/2000/svg" width="512" height="512"><path d="M233.222 177.726V108.26c39.47-5.864 55.83-30.009 55.83-30.009C276.227 36.234 245.268 7.5 201.044 7.5h-14.542s-7.787 29.855-35.443 29.855S115.616 7.5 115.616 7.5h-14.542c-44.224 0-75.183 28.734-88.008 70.75 0 0 17.434 25.744 55.83 30.009v154.79M233.222 108.26v-29.7m-164.326 29.7v-29.7m377.749 118.433c-9.742-16.499-26.876-30.174-40.194-30.174h0m22.344 186.095c17.256 34.378 34.19 68.057 34.19 68.057 1.836 4.89 7.185 7.538 12.217 6.049l22.219-6.657c4.814-1.425 7.789-6.183 6.932-11.098-.982-5.63-2.23-13.737-3.825-23.617-6.861-42.524-13.746-104.445-40.022-162.001" fill="none" stroke="#000" stroke-width="15" stroke-linecap="round" stroke-linejoin="round" stroke-miterlimit="10"/><path fill="none" stroke="#000" stroke-width="15" stroke-linecap="round" stroke-linejoin="round" stroke-miterlimit="10" d="M500.011 385.731l-47.555 14.291M188.034 263.05c7.081-22.316 16.36-44.779 28.924-66.057 9.742-16.499 26.876-30.174 40.194-30.174h0"/><g fill="none" stroke="#000" stroke-width="15" stroke-linecap="round" stroke-linejoin="round" stroke-miterlimit="10"><path d="M349.741 234.007h79.054l-22.556-67.188h-56.498zm79.055 67.188h-79.054v-67.188h79.054z"/><path d="M428.796 368.382h-79.054v-67.188h79.054zm0 67.188h-79.054v-67.188h79.054zM315.428 234.007h-80.794l22.556-67.188h58.238zm65.414-67.188h-96.514v-28.7c0-6.569 5.325-11.893 11.893-11.893h72.728c6.569 0 11.893 5.325 11.893 11.893v28.7zm-146.208 96.234v-29.046h80.794v67.188h-68.619m0 0h68.62v67.188h-68.62zm0 67.188h68.62v67.188h-68.62z"/><path d="M315.428 126.225h34.313V435.57h-34.313z"/></g><path d="M77.895 504.5H236.8c5.528 0 10.009-4.44 10.009-9.918V274.184c0-6.147-5.002-11.131-11.172-11.131H18.672c-6.17 0-11.172 4.983-11.172 11.131v220.398c0 5.478 4.481 9.918 10.009 9.918h30.508" fill="none" stroke="#000" stroke-width="15" stroke-linecap="round" stroke-linejoin="round" stroke-miterlimit="10"/><path fill="none" stroke="#000" stroke-width="15" stroke-linecap="round" stroke-linejoin="round" stroke-miterlimit="10" d="M92.46 263.053v85.677l34.694-20.276 34.695 20.276v-85.677z"/></svg>