<svg xmlns="http://www.w3.org/2000/svg" data-name="Layer 1" viewBox="0 0 24 24" width="512" height="512"><path d="M8.572 19.824L7.97 22.8A1.5 1.5 0 016.5 24a1.461 1.461 0 01-.3-.03 1.5 1.5 0 01-1.17-1.77l.6-2.974a1.5 1.5 0 112.939.6zM12.5 5A2.5 2.5 0 1010 2.5 2.5 2.5 0 0012.5 5zM22 9.5v13a1.5 1.5 0 01-3 0V13h-2.592a3.494 3.494 0 01-2.673-1.24l-1.048-1.24L11.5 15.3l1.171.929A3.481 3.481 0 0114 18.967V22.5a1.5 1.5 0 01-3 0v-3.533a.5.5 0 00-.189-.392L8.118 16.44a3.525 3.525 0 01-.679-.714 3.992 3.992 0 01-1.47.274A3.845 3.845 0 012 12.026C2 8.759 5.4 6 9.413 6h1.831a3.859 3.859 0 012.915 1.614l1.867 2.209a.5.5 0 00.382.177H19v-.5a1.5 1.5 0 013 0zM5.969 13a1.369 1.369 0 001.052-.637L7.8 9.236c-1.593.472-2.8 1.591-2.8 2.79a.861.861 0 00.969.974z"/></svg>