<svg xmlns="http://www.w3.org/2000/svg" data-name="Layer 1" viewBox="0 0 24 24" width="512" height="512"><path d="M19 2.02V1.5c0-.83-.67-1.5-1.5-1.5S16 .67 16 1.5V2H8v-.5C8 .67 7.33 0 6.5 0S5 .67 5 1.5v.52c-2.8.26-5 2.62-5 5.48v11C0 21.53 2.47 24 5.5 24h13c3.03 0 5.5-2.47 5.5-5.5v-11c0-2.86-2.2-5.22-5-5.48zM10 14v-4h4v4h-4zm4 3v4h-4v-4h4zM3 10h4v4H3v-4zm14 0h4v4h-4v-4zM5.5 5h13a2.5 2.5 0 012.45 2H3.05A2.5 2.5 0 015.5 5zM3 18.5V17h4v4H5.5A2.5 2.5 0 013 18.5zM18.5 21H17v-4h4v1.5a2.5 2.5 0 01-2.5 2.5z"/></svg>