<svg xmlns="http://www.w3.org/2000/svg" viewBox="0 0 24 24" width="512" height="512"><path d="M12 0A10.513 10.513 0 001.5 10.5c0 2.826 2.2 6.766 6.541 11.709a5.275 5.275 0 007.92 0C20.3 17.267 22.5 13.327 22.5 10.5A10.513 10.513 0 0012 0zm1.706 20.231a2.33 2.33 0 01-3.412 0c-3.683-4.195-5.8-7.742-5.8-9.73a7.5 7.5 0 0115 0c.006 1.988-2.105 5.535-5.788 9.73z"/><path d="M12 6.055a4.363 4.363 0 104.363 4.363A4.368 4.368 0 0012 6.055zm0 5.726a1.363 1.363 0 111.363-1.363A1.364 1.364 0 0112 11.781z"/></svg>