<svg width="682.667" height="682.667" xmlns="http://www.w3.org/2000/svg"><defs><clipPath clipPathUnits="userSpaceOnUse" id="a"><path d="M0 512h512V0H0z"/></clipPath></defs><g clip-path="url(#a)" transform="matrix(1.33333 0 0 -1.33333 0 682.667)" fill="none" stroke="#000" stroke-width="15" stroke-linecap="round" stroke-linejoin="round" stroke-miterlimit="10"><path d="M368.284 489.242h66.923c21.464 0 39.027-17.564 39.027-39.028v-14.062c0-21.493-17.563-39.056-39.027-39.056h-66.923m-33.22 0H176.48m0 92.146h158.583M143.26 397.096H76.366c-21.492 0-39.055 17.563-39.055 39.056v14.062c0 21.464 17.563 39.028 39.055 39.028h66.895m-66.895-173.22V36.337c0-15.856 12.952-28.837 28.836-28.837h301.14c15.885 0 28.865 12.981 28.865 28.837v279.685M76.366 181.488H19.548c-4.327 0-7.828 3.53-7.828 7.83v28.721c0 20.126 16.453 36.58 36.55 36.58h28.096m-53.061-73.131v-66.384c0-29.292 23.826-53.262 53.061-53.517"/><path d="M435.207 181.488h57.245c4.327 0 7.828 3.53 7.828 7.83v28.721c0 20.126-16.453 36.58-36.55 36.58h-28.523m53.488-73.131v-66.384c0-29.435-24.083-53.517-53.488-53.517M274.432 234.92h79.676c44.606 0 81.099 36.494 81.099 81.102v81.073m-358.841 0v-81.073c0-44.608 36.465-81.102 81.07-81.102h80.417"/><path d="M176.48 318.527V299.71c0-8.398-6.86-15.258-15.257-15.258h-2.705c-8.397 0-15.258 6.86-15.258 15.258v18.816zM158.52 504.5h2.704c8.398 0 15.258-6.86 15.258-15.258V354.85h-33.22v134.39c0 8.399 6.86 15.259 15.258 15.259zm209.764-185.973V299.71c0-8.398-6.86-15.258-15.258-15.258h-2.704c-8.397 0-15.258 6.86-15.258 15.258v18.816zM350.322 504.5h2.704c8.398 0 15.258-6.86 15.258-15.258V354.85h-33.22v134.39c0 8.399 6.86 15.259 15.258 15.259z"/><path d="M121.684 354.85h76.374c2.135 0 3.872-1.764 3.872-3.9v-28.522c0-2.136-1.737-3.901-3.872-3.901h-76.374c-2.135 0-3.872 1.765-3.872 3.9v28.524c0 2.135 1.737 3.9 3.872 3.9zm191.832 0h76.345c2.135 0 3.872-1.764 3.872-3.9v-28.522c0-2.136-1.737-3.901-3.872-3.901h-76.345a3.906 3.906 0 00-3.9 3.9v28.524c0 2.135 1.736 3.9 3.9 3.9zM140.585 171.61h230.403c3.331 0 6.063-2.732 6.063-6.063v-44.693c0-3.359-2.732-6.092-6.063-6.092H140.585a6.1 6.1 0 00-6.092 6.092v44.693c0 3.331 2.733 6.063 6.092 6.063z"/><path d="M237.853 57.915h-84.401c-6.69 0-12.184 5.494-12.184 12.184v44.664m229.008 0V70.099c0-6.69-5.493-12.184-12.183-12.184h-92.714m-9.592 85.285v-40.99"/></g></svg>