<svg xmlns="http://www.w3.org/2000/svg" viewBox="0 0 512 512"><path d="M371.734 328.017a352.52 352.52 0 0014.34-22.469c25.918-44.304 39.059-90.192 39.059-136.391C425.134 75.884 349.261 0 255.999 0 162.741 0 86.87 75.884 86.87 169.157c0 53.82 18.357 108.076 53.433 158.85-64.602 17.276-102.234 48.026-102.236 84.933 0 29.817 25.031 56.252 70.482 74.431C148.255 503.252 200.62 512 256 512s107.745-8.746 147.451-24.629c45.451-18.181 70.482-44.614 70.482-74.431-.002-36.899-37.62-67.645-102.199-84.923zM256.001 116.302c29.177 0 52.832 23.652 52.832 52.832 0 29.178-23.656 52.832-52.832 52.832-29.177 0-52.832-23.654-52.832-52.832 0-29.18 23.656-52.832 52.832-52.832zm132.732 334.279c-35.137 14.055-82.275 21.795-132.734 21.795s-97.598-7.74-132.734-21.795C95.579 439.508 77.69 424.732 77.69 412.94c.001-15.822 31.232-38.208 89.363-50.595 38.466 44.152 76.496 69.239 78.106 70.292a19.787 19.787 0 0010.84 3.228c3.772 0 7.548-1.076 10.84-3.228.837-.547 20.778-13.664 46.233-37.376 11.43-10.648 22.072-21.635 31.899-32.91 58.114 12.388 89.336 34.77 89.336 50.588 0 11.793-17.889 26.567-45.574 37.642z"/></svg>