<svg width="682.667" height="682.667" xmlns="http://www.w3.org/2000/svg"><defs><clipPath clipPathUnits="userSpaceOnUse" id="a"><path d="M0 512h512V0H0z"/></clipPath><clipPath clipPathUnits="userSpaceOnUse" id="b"><path d="M0 512h512V0H0z"/></clipPath></defs><g clip-path="url(#a)" transform="matrix(1.33333 0 0 -1.33333 0 682.667)"><path d="M336.161 71.629L175.84 7.499" fill="none" stroke="#000" stroke-width="15" stroke-linecap="round" stroke-linejoin="round" stroke-miterlimit="10"/></g><path d="M234.452 223.764l213.763-85.506m0 256.513V138.258" fill="none" stroke="#000" stroke-width="20" stroke-linecap="round" stroke-linejoin="round" stroke-miterlimit="10"/><g clip-path="url(#b)" transform="matrix(1.33333 0 0 -1.33333 0 682.667)" fill="none" stroke="#000" stroke-width="15" stroke-linecap="round" stroke-linejoin="round" stroke-miterlimit="10"><path d="M496.484 376.242V39.565L336.16 71.629v96.196m-160.321 32.058V7.5L15.516 39.564v336.677l160.323-32.064v-96.86"/><path d="M15.516 39.565l115.261 115.26c9.392 9.393 24.618 9.393 34.01 0l83.197-83.196m-28.057 28.057l179.391 179.39c9.391 9.391 24.618 9.391 34.01 0l63.156-63.157m-20.542 232.468c0-48.097-56.113-128.258-56.113-128.258s-56.113 80.161-56.113 128.258c0 30.99 25.123 56.113 56.113 56.113s56.113-25.123 56.113-56.113z"/><path d="M439.863 443.826c-2.075-9.15-10.256-15.98-20.033-15.98-11.345 0-20.542 9.197-20.542 20.542 0 11.344 9.197 20.54 20.542 20.54M296.08 175.839l-48.783 48.784c-6.261 6.26-16.412 6.26-22.674 0l-36.76-36.76-56.8 56.8c-6.261 6.26-16.412 6.26-22.673 0l-92.873-92.872"/></g></svg>