<svg height="512pt" viewBox="0 -66 512 512" width="512pt" xmlns="http://www.w3.org/2000/svg"><path d="M497 350.633H15c-8.285 0-15 6.719-15 15.004 0 8.281 6.715 15 15 15h482c8.285 0 15-6.719 15-15 0-8.285-6.715-15.004-15-15.004zM124.723 121.742c33.566 0 60.87-27.308 60.87-60.87C185.594 27.304 158.29 0 124.724 0 91.16 0 63.852 27.305 63.852 60.871c0 33.563 27.308 60.871 60.87 60.871zm317.484 153.192c-6.973-11.97-17.516-18.832-28.937-18.832h-.024c-11.418.011-21.953 6.882-28.898 18.855l-.094.16c-.207.367-.414.738-.629 1.113l-83.746-145.062c-8.527-14.777-21.29-23.262-35.012-23.277h-.039c-13.723 0-26.508 8.472-35.09 23.277 0 0-27.324 47.355-44.875 77.758-2.73-4.723-4.808-8.324-4.863-8.414-8.52-14.785-21.285-23.274-35.016-23.285h-.027c-13.73 0-26.512 8.48-35.07 23.277L41.164 319.563l-.617 1.07h428.027a12812.457 12812.457 0 01-26.367-45.7zm0 0" fill="#51c0fc"/></svg>