<svg xmlns="http://www.w3.org/2000/svg" data-name="Layer 1" viewBox="0 0 24 24" width="512" height="512"><path d="M16.5 24a1.5 1.5 0 01-1.489-1.335 3.031 3.031 0 00-6.018 0 1.5 1.5 0 01-2.982-.33 6.031 6.031 0 0111.982 0 1.5 1.5 0 01-1.326 1.656A1.557 1.557 0 0116.5 24zm6.167-9.009a1.5 1.5 0 001.326-1.656A5.815 5.815 0 0018.5 8a1.5 1.5 0 000 3 2.835 2.835 0 012.509 2.665A1.5 1.5 0 0022.5 15a1.557 1.557 0 00.165-.009zM2.991 13.665A2.835 2.835 0 015.5 11a1.5 1.5 0 000-3 5.815 5.815 0 00-5.491 5.335 1.5 1.5 0 001.326 1.656A1.557 1.557 0 001.5 15a1.5 1.5 0 001.491-1.335zM12.077 16a3.5 3.5 0 10-3.5-3.5 3.5 3.5 0 003.5 3.5zm6-9a3.5 3.5 0 10-3.5-3.5 3.5 3.5 0 003.5 3.5zm-12 0a3.5 3.5 0 10-3.5-3.5 3.5 3.5 0 003.5 3.5z"/></svg>