<svg width="682.667" height="682.667" xmlns="http://www.w3.org/2000/svg"><defs><clipPath clipPathUnits="userSpaceOnUse" id="a"><path d="M0 512h512V0H0z"/></clipPath></defs><g clip-path="url(#a)" transform="matrix(1.33333 0 0 -1.33333 0 682.667)" fill="none" stroke="#000" stroke-width="15" stroke-linecap="round" stroke-linejoin="round" stroke-miterlimit="10"><path d="M341.735 475.959c-11.256 17.187-30.684 28.541-52.764 28.541h-65.944c-34.808 0-63.026-28.218-63.026-63.027v-47.17s12.751.288 20.944-7.821c1.707-1.689 4.606-.455 4.606 1.946v50.076c0 11.304 9.164 20.467 20.467 20.467h18.598c14.39 0 15.051-12.037 31.384-12.037 16.238 0 17.001 12.037 31.383 12.037h18.598c11.304 0 20.467-9.163 20.467-20.467v-50.076c0-2.401 2.9-3.635 4.606-1.946 8.194 8.109 20.945 7.821 20.945 7.821v47.17"/><path d="M160.001 394.303v-31.928c0-7.681 6.227-13.908 13.909-13.908h5.26c.434-20.186 8.916-39.616 24.241-52.811 12.338-10.624 29.68-19.896 52.589-20.152 22.909.256 40.251 9.528 52.589 20.152 15.325 13.195 23.808 32.625 24.241 52.81h5.26c7.682 0 13.909 6.228 13.909 13.909v31.928"/><path d="M256 275.504c-16.451.184-30.016 5.027-40.934 11.67V250.52c0-22.607 18.327-40.934 40.934-40.934 22.607 0 40.935 18.327 40.935 40.934v36.655c-10.918-6.644-24.484-11.487-40.935-11.671zM77.141 111.61V35.48c0-15.453 12.527-27.98 27.98-27.98H406.88c15.453 0 27.98 12.527 27.98 27.98v76.13"/><path d="M363.01 7.5v83.402c0 11.437 9.27 20.709 20.709 20.709h51.14v59.836c0 5.484-.598 10.97-2.04 16.261-6.038 22.161-24.057 39.576-47.207 44.387l-22.842 4.746m-34.65 7.199l-31.186 6.48m-81.868 0h0l-31.185-6.479m-34.651-7.201l-22.841-4.745c-23.151-4.81-41.17-22.226-47.208-44.387-1.442-5.291-2.04-10.777-2.04-16.261V111.61h51.14c11.438 0 20.71-9.272 20.71-20.71V7.5m.125 147.417c-.704-17.317-4.66-31.504-11.636-45.482"/><path d="M148.99 62.454l7.882 8.496c19.177 28.8 27.009 55.076 27.009 89.675v86.47c0 5.824-5.504 10.08-11.142 8.613l-16.848-4.38a8.902 8.902 0 01-6.661-8.616v-52.687m225.29-80.59c-7.728 15.484-11.75 31.224-11.75 51.19v82.087a8.9 8.9 0 01-6.661 8.615l-16.847 4.381c-5.638 1.467-11.142-2.789-11.142-8.614v-86.469c0-34.599 7.832-60.876 27.008-89.675l7.882-8.496M215.066 250.52h0v36.655m-71.219.2c-16.045-13.702-26.23-34.065-26.23-56.82h0c0-.323.02-.64.024-.962m276.719.001c.003.32.023.639.023.96v.002c0 22.753-10.185 43.117-26.23 56.819m-71.218-.2V250.52m.327 36.855H399.7c15.477 0 28.024 12.547 28.024 28.024v22.21c0 15.478-12.547 28.025-28.024 28.025h-47.702"/><path d="M160.001 365.633h-47.702c-15.477 0-28.024-12.546-28.024-28.023v-22.212c0-15.477 12.547-28.024 28.024-28.024h102.439"/></g></svg>