<svg height="511pt" viewBox="0 -26 511.997 511" width="511pt" xmlns="http://www.w3.org/2000/svg"><path d="M460.824 291.984h-24.992v-4.46c18.715-7.344 33.14-23.626 37.656-43.891a27.632 27.632 0 007.457 1.039c15.188 0 27.543-12.356 27.543-27.543 0-6.809-2.488-13.043-6.597-17.856l1.812-8.835c5.16-25.176-.148-50.59-14.941-71.563a7.501 7.501 0 00-12.258 8.648c12.383 17.551 16.824 38.825 12.504 59.903l-.653 3.18a27.47 27.47 0 00-7.414-1.024c-.14 0-.28.008-.421.012l.742-5.946a7.491 7.491 0 004.265-6.546 7.496 7.496 0 00-7.28-7.711c-25.856-.743-35.86-5.567-36.759-6.028-2.289-1.496-5.09-1.543-7.508-.25-2.285 1.223-3.652 3.598-3.816 6.168-22.621-1.27-33.582-8.027-33.64-8.066a7.506 7.506 0 00-7.68-.328 7.5 7.5 0 00-3.938 6.601v1.809a127.64 127.64 0 01-6.3-.488 33.92 33.92 0 00-7.313-12.676l2.621-12.785a119.21 119.21 0 001.547-38.578c11.508-6.524 24.562-9.97 37.984-9.97 14.828 0 29.192 4.192 41.543 12.114a7.461 7.461 0 004.043 1.188 7.482 7.482 0 006.32-3.45c2.239-3.484 1.223-8.125-2.261-10.363-14.774-9.476-31.942-14.488-49.649-14.488-14.32 0-28.3 3.285-40.937 9.554-4.258-16.273-11.984-31.656-22.95-45.097C326.865 16.449 293.27.5 257.38.5c-26.24 0-51.08 8.336-71.837 24.11a7.498 7.498 0 00-1.434 10.507 7.498 7.498 0 0010.508 1.434c18.125-13.774 39.828-21.055 62.762-21.055 31.363 0 60.723 13.941 80.55 38.246 19.829 24.301 27.587 55.863 21.29 86.59l-1.39 6.777A33.66 33.66 0 00343 145.234l.55-4.41a13.53 13.53 0 008.391-3.894 13.556 13.556 0 004.04-9.696v-17.46a7.5 7.5 0 10-15 0v16.093c-15.614-.277-51.614-3.27-78.454-23.527a7.506 7.506 0 00-9.035 0c-26.84 20.258-62.84 23.25-78.457 23.527v-16.094a7.5 7.5 0 10-15 0v17.461c0 3.668 1.438 7.114 4.04 9.696a13.544 13.544 0 007.109 3.726c.004.024.004.051.007.078l.563 4.496a34.967 34.967 0 00-3.27-.152 33.76 33.76 0 00-11.558 2.031l-1.39-6.773c-5.942-28.992.362-58.117 17.753-82.008a7.501 7.501 0 00-1.648-10.48 7.5 7.5 0 00-10.477 1.652c-8.984 12.34-15.375 25.902-19.066 40.117-12.77-6.437-26.934-9.816-41.45-9.816-27.8 0-53.82 12.355-71.394 33.894-17.57 21.543-24.445 49.512-18.863 76.746l1.808 8.836c-4.105 4.809-6.594 11.043-6.594 17.852 0 15.187 12.356 27.543 27.543 27.543 2.551 0 5.051-.363 7.454-1.04 4.515 20.27 18.945 36.548 37.66 43.895v4.461H51.176C22.957 291.984 0 314.941 0 343.16v81.399c0 4.14 3.36 7.5 7.5 7.5s7.5-3.36 7.5-7.5V343.16c0-19.95 16.227-36.176 36.176-36.176h27.086v2.207c0 12.344 10.043 22.387 22.386 22.387s22.387-10.043 22.387-22.387v-2.207h16.453c-7.715 10.692-12.281 23.801-12.281 37.961v107.196a7.5 7.5 0 1015 0V344.945c0-27.578 22.438-50.015 50.016-50.015h1.988l-17.516 14.922a7.49 7.49 0 00-2.636 5.707v24.894a7.5 7.5 0 007.5 7.5h5.12l-5.734 19.742a7.502 7.502 0 001.192 6.578l24.945 33.426v44.442c0 4.144 3.356 7.5 7.5 7.5a7.5 7.5 0 007.5-7.5V294.93h8.188v5.28c0 14.946 12.16 27.103 27.105 27.103s27.105-12.157 27.105-27.102v-5.281h8.192v157.21c0 4.145 3.355 7.5 7.5 7.5a7.5 7.5 0 007.5-7.5V407.7l24.941-33.427a7.49 7.49 0 001.192-6.578l-5.735-19.742h5.125c4.14 0 7.5-3.36 7.5-7.5v-24.89c0-2.2-.965-4.286-2.636-5.711l-17.496-14.903c27.214.426 49.226 22.684 49.226 49.996v28.125c0 4.14 3.36 7.5 7.5 7.5 4.14 0 7.5-3.36 7.5-7.5v-28.125c0-14.16-4.566-27.27-12.281-37.96h18.547v2.206c0 12.344 10.043 22.387 22.386 22.387s22.387-10.043 22.387-22.387v-2.207h24.996c19.946 0 36.172 16.23 36.172 36.176v81.399a7.5 7.5 0 1015 0V343.16c.004-28.219-22.953-51.176-51.172-51.176zm20.117-87.402c6.918 0 12.543 5.629 12.543 12.543 0 6.918-5.625 12.543-12.543 12.543-1.851 0-3.64-.406-5.28-1.172l2.956-23.691a12.87 12.87 0 012.324-.223zM388 184.426c.102.004.203.004.309.004a11.68 11.68 0 008.101-3.285 11.652 11.652 0 002.07-2.708c7.434 2.653 18.965 5.528 34.743 5.985 3.097.082 6.183-1.102 8.418-3.274.441-.43.843-.886 1.207-1.367 5.14 1.48 12.695 3.051 23.285 3.953l-6.528 52.27c-2.902 23.23-22.746 40.754-46.16 40.754-23.414 0-43.261-17.524-46.164-40.754l-3.5-28.027c8.453-5.118 14.496-13.829 16.012-23.997 2.684.22 5.422.372 8.207.446zm-54.55 31.703a73.57 73.57 0 00.878-3.746c.203-.492.442-.965.707-1.43a33.82 33.82 0 0011.235 1.914c1.007 0 2.003-.054 2.988-.14l1.972 15.773a12.478 12.478 0 01-5.285 1.172c-6.918 0-12.543-5.629-12.543-12.543 0-.336.024-.668.047-1zm12.82-56.055c10.417 0 18.894 8.477 18.894 18.895s-8.477 18.898-18.894 18.898a18.7 18.7 0 01-9.52-2.586l4.305-34.465a18.82 18.82 0 015.215-.742zm-88.258-42.539c23.633 15.93 51.773 21.098 70.496 22.688l-7.98 63.902c-3.97 31.781-31.118 55.75-63.15 55.75s-59.179-23.969-63.148-55.75l-7.968-63.8c18.703-1.462 47.586-6.5 71.75-22.79zm-93.168 95.133c1.195.129 2.41.2 3.64.2a33.89 33.89 0 0010.68-1.74 12.449 12.449 0 011.527 5.997c0 6.918-5.625 12.543-12.543 12.543-1.863 0-3.648-.398-5.285-1.164zm8.855-51.86l4.309 34.481a18.655 18.655 0 01-9.524 2.578c-10.418 0-18.894-8.48-18.894-18.898s8.476-18.895 18.894-18.895c1.786 0 3.532.25 5.215.735zM40.88 123.177C55.589 105.14 77.375 94.8 100.649 94.8c13.636 0 26.89 3.547 38.535 10.277-1.497 12.543-.977 25.414 1.66 38.266l2.62 12.785a33.998 33.998 0 00-6.343 10.012c-5.422-1.305-7.992-2.555-8.426-2.778-2.289-1.496-5.09-1.543-7.508-.25-2.285 1.223-3.652 3.598-3.816 6.168-22.625-1.273-33.582-8.027-33.644-8.066a7.499 7.499 0 00-11.614 6.273v1.809c-16.422-.856-27.191-4.426-33.457-7.375a7.498 7.498 0 00-6.875 13.312l1.793 14.36c-.14 0-.281-.008-.422-.008-2.57 0-5.054.36-7.414 1.02l-.652-3.18c-4.676-22.801 1.082-46.219 15.793-64.25zM20.606 217.13c0-6.918 5.63-12.543 12.543-12.543.79 0 1.563.074 2.325.215l2.96 23.699a12.478 12.478 0 01-5.285 1.172c-6.914 0-12.543-5.629-12.543-12.543zm33.883 18.875l-6.89-55.16c7.332 1.844 16.468 3.285 27.609 3.582.102.004.203.004.309.004a11.68 11.68 0 008.101-3.285 11.677 11.677 0 002.07-2.708c7.43 2.653 18.965 5.528 34.743 5.985 3.101.082 6.183-1.102 8.418-3.274.437-.425.836-.878 1.199-1.359a81.66 81.66 0 004.61 1.184c.655 11.191 6.765 20.933 15.702 26.617l-3.547 28.414c-2.902 23.234-22.746 40.754-46.16 40.754-23.414 0-43.261-17.52-46.164-40.754zm46.16 80.574c-4.074 0-7.386-3.316-7.386-7.387v-17.894c2.425.293 4.89.46 7.386.46 2.497 0 4.961-.163 7.387-.46v17.894c0 4.07-3.312 7.387-7.387 7.387zm95.747 51.715l7.476-25.746c.66-2.266.215-4.711-1.203-6.598s-3.64-2.996-6-2.996h-7.61v-13.926l18.024-15.355v78.945zm-4.172-88.363c-14.243 0-27.426 4.617-38.149 12.418-2-.235-4.027-.364-6.043-.364h-24.996v-4.46c18.719-7.344 33.149-23.633 37.66-43.903a27.51 27.51 0 007.453 1.05c8.344 0 15.829-3.73 20.88-9.609 9.171 16.09 23.816 28.54 41.245 34.97v9.898zm65.156 32.386c-6.676 0-12.106-5.433-12.106-12.105v-26.29c3.957.618 7.997.954 12.106.954s8.148-.336 12.105-.953v26.289c0 6.672-5.43 12.105-12.105 12.105zm68.316 20.637h-7.61a7.498 7.498 0 00-5.995 2.996 7.507 7.507 0 00-1.207 6.598l7.48 25.746-10.691 14.324v-78.945l18.023 15.355zm38.274-40.969c-2.02 0-4.043.13-6.043.364-10.723-7.801-23.903-12.418-38.149-12.418h-35.293v-9.903c17.27-6.367 31.805-18.644 40.993-34.523 5.046 5.617 12.343 9.164 20.468 9.164 2.555 0 5.051-.363 7.457-1.04 4.516 20.27 18.942 36.552 37.657 43.895v4.461zm49.476 24.594c-4.074 0-7.386-3.316-7.386-7.387v-17.894c2.425.293 4.886.46 7.386.46a60.83 60.83 0 007.387-.46v17.894c0 4.07-3.316 7.387-7.387 7.387zm0 0"/><path d="M376.52 213.008l.09 3.176a7.5 7.5 0 007.492 7.296c.07 0 .136-.003.207-.003a7.501 7.501 0 007.293-7.704l-.086-3.175c-.114-4.141-3.559-7.422-7.704-7.293a7.501 7.501 0 00-7.292 7.703zm66.347 10.472c.067 0 .137-.003.207-.003a7.501 7.501 0 007.293-7.704l-.086-3.175c-.113-4.141-3.558-7.422-7.703-7.293a7.501 7.501 0 00-7.293 7.703l.086 3.176a7.503 7.503 0 007.496 7.296zm-53.359 15.922c5.547 7.66 14.496 12.235 23.937 12.235 9.442 0 18.39-4.575 23.938-12.235a7.503 7.503 0 00-1.68-10.472 7.499 7.499 0 00-10.473 1.675 14.596 14.596 0 01-11.785 6.032 14.598 14.598 0 01-11.789-6.032 7.498 7.498 0 00-10.472-1.675 7.498 7.498 0 00-1.676 10.472zm79.418 109.481a7.497 7.497 0 00-7.5 7.5v68.176a7.5 7.5 0 1015 0v-68.176a7.5 7.5 0 00-7.5-7.5zM78.809 215.773l-.09-3.175c-.114-4.141-3.543-7.422-7.7-7.293a7.501 7.501 0 00-7.292 7.703l.086 3.176a7.502 7.502 0 007.492 7.296l.21-.003a7.501 7.501 0 007.294-7.704zm51.261 7.707c.07 0 .14-.003.207-.003a7.499 7.499 0 007.293-7.704l-.086-3.175c-.113-4.141-3.543-7.422-7.703-7.293-4.14.113-7.402 3.562-7.293 7.703l.09 3.176a7.5 7.5 0 007.492 7.296zm-5.484 15.922a7.498 7.498 0 00-1.676-10.472 7.503 7.503 0 00-10.476 1.675 14.596 14.596 0 01-11.786 6.032 14.603 14.603 0 01-11.789-6.032c-2.425-3.355-7.117-4.105-10.472-1.675a7.498 7.498 0 00-1.676 10.472c5.547 7.66 14.496 12.235 23.937 12.235 9.442 0 18.391-4.575 23.938-12.235zM43.074 348.883a7.5 7.5 0 00-7.5 7.5v68.176a7.5 7.5 0 1015 0v-68.176c0-4.145-3.355-7.5-7.5-7.5zm334.219 48.687a7.497 7.497 0 00-7.5 7.5v47.07c0 4.145 3.355 7.5 7.5 7.5a7.5 7.5 0 007.5-7.5v-47.07a7.5 7.5 0 00-7.5-7.5zM218.738 184.957h.207a7.501 7.501 0 007.293-7.703l-.113-4.184c-.113-4.144-3.59-7.414-7.703-7.293a7.501 7.501 0 00-7.293 7.703l.113 4.184a7.502 7.502 0 007.496 7.293zm77.387 0h.21a7.498 7.498 0 007.29-7.703l-.113-4.184c-.114-4.144-3.598-7.414-7.703-7.293a7.501 7.501 0 00-7.293 7.703l.117 4.184a7.496 7.496 0 007.492 7.293zm-38.746 37.083c11.672 0 22.738-5.657 29.598-15.13a7.505 7.505 0 00-1.676-10.472 7.503 7.503 0 00-10.477 1.675c-4.043 5.59-10.566 8.926-17.445 8.926s-13.402-3.336-17.45-8.926c-2.429-3.355-7.117-4.105-10.472-1.675s-4.105 7.117-1.676 10.472c6.86 9.473 17.922 15.13 29.598 15.13zm-75.82 163.288a7.5 7.5 0 00-7.5 7.5v59.313c0 4.144 3.359 7.5 7.5 7.5s7.5-3.356 7.5-7.5v-59.313a7.5 7.5 0 00-7.5-7.5zm148.882 0a7.5 7.5 0 00-7.5 7.5v59.313a7.5 7.5 0 1015 0v-59.313a7.5 7.5 0 00-7.5-7.5zm0 0"/></svg>