<svg height="512" width="512" xmlns="http://www.w3.org/2000/svg"><g fill="#FDC440"><path d="M451.218 60.782C412.022 21.586 359.832 0 304.259 0c-8.284 0-15 6.716-15 15s6.716 15 15 15c47.559 0 92.216 18.466 125.746 51.995C463.535 115.525 482 160.182 482 207.741c0 8.284 6.716 15 15 15s15-6.716 15-15c0-55.572-21.586-107.763-60.782-146.959z"/><path d="M304.259 77.097c-8.284-.001-15 6.715-15 14.999s6.716 15 15 15c26.933 0 52.22 10.455 71.205 29.44 18.984 18.985 29.439 44.272 29.44 71.205 0 8.284 6.716 15 15 15s15-6.716 15-15c0-34.946-13.576-67.767-38.226-92.418-24.652-24.651-57.473-38.227-92.419-38.226zm37.877 92.767c-10.149-10.149-23.642-15.721-37.996-15.689-8.284.018-14.985 6.749-14.967 15.033.018 8.283 6.748 14.986 15.033 14.967a23.411 23.411 0 0116.716 6.902 23.411 23.411 0 016.902 16.663c.001 8.283 6.716 15 15 15.001 8.285-.001 15-6.715 15.001-15 0-14.307-5.572-27.759-15.689-37.877zm106.087 286.76l14.711-14.711c15.794-15.794 15.794-41.492 0-57.286l-94.483-94.483c-15.794-15.794-41.492-15.794-57.286 0l-14.711 14.711zM207.144 215.546l14.711-14.711c15.794-15.794 15.793-41.492-.001-57.286l-94.483-94.483c-15.794-15.794-41.492-15.794-57.286 0L55.376 63.777zM34.502 85.329c-48.53 57.025-45.865 142.704 8.006 196.575l187.589 187.589c53.871 53.871 139.55 56.535 196.575 8.005z"/></g></svg>