<svg height="512" width="512" xmlns="http://www.w3.org/2000/svg"><path d="M509.16 103.546a22.39 22.39 0 00-13.503-10.732L217.187 13.07c-11.947-3.424-24.448 3.515-27.869 15.461l-19.702 68.801H22.536C10.109 97.332 0 107.442 0 119.868v270.048a7.512 7.512 0 1015.024 0V119.868c0-4.142 3.37-7.512 7.512-7.512h295.673c4.142 0 7.512 3.37 7.512 7.512v357.401c0 4.142-3.37 7.512-7.512 7.512H22.536c-4.142 0-7.512-3.37-7.512-7.512V424.21a7.512 7.512 0 10-15.024 0v53.059c0 12.426 10.109 22.536 22.536 22.536h295.673c12.427 0 22.536-10.11 22.536-22.536v-10.167l44.112 12.632c5.844 1.642 11.556.989 17.137-1.958a22.386 22.386 0 0010.733-13.503l30.612-106.9a7.511 7.511 0 00-5.153-9.289 7.51 7.51 0 00-9.29 5.154l-30.612 106.9a7.46 7.46 0 01-3.578 4.501 7.47 7.47 0 01-5.712.652l-48.248-13.816v-71.298l23.993 6.871c8.63 2.472 19.392-3.437 21.884-12.141l55.045-192.221a17.58 17.58 0 00-1.538-13.456 17.579 17.579 0 00-10.603-8.428l-88.781-25.424v-15.51c0-12.426-10.109-22.536-22.536-22.536H185.243l18.517-64.665c1.141-3.982 5.308-6.294 9.29-5.154l278.471 79.744a7.466 7.466 0 014.501 3.578 7.466 7.466 0 01.653 5.712l-58.608 204.661a7.511 7.511 0 005.153 9.289c3.809 1.036 6.906-.682 9.29-5.154l58.607-204.661a22.375 22.375 0 00-1.957-17.136zm-83.769 71.699a2.66 2.66 0 011.601 1.273c.201.362.497 1.106.232 2.033l-55.045 192.221a2.68 2.68 0 01-3.305 1.833l-28.129-8.055V151.006z"/><path d="M96.562 180.899H67.395c-9.758 0-17.697 7.939-17.697 17.696v199.946c0 9.759 7.939 17.697 17.697 17.697h205.956c9.758 0 17.696-7.939 17.696-17.697V198.595c0-9.758-7.939-17.696-17.696-17.696H132.318a7.512 7.512 0 100 15.024h141.033a2.675 2.675 0 012.672 2.672v199.946a2.676 2.676 0 01-2.672 2.673H67.395a2.676 2.676 0 01-2.673-2.673V198.595a2.676 2.676 0 012.673-2.672h29.166a7.512 7.512 0 007.512-7.512 7.51 7.51 0 00-7.511-7.512z"/><path d="M197.919 215.369h-54.087c-19.52 0-35.401 15.881-35.401 35.401v34.699C97.537 288.326 91.268 297 92.135 308.775c.878 11.926 8.743 24.546 19.064 27.984 7.452 26.375 31.696 45.008 59.552 45.008 27.954 0 52.274-18.765 59.631-45.29 10.065-3.85 17.392-16.353 18.227-27.702.841-11.409-5.018-19.907-15.291-23.025v-34.98c.001-19.52-15.879-35.401-35.399-35.401zm-54.087 15.024h54.087c11.236 0 20.376 9.141 20.376 20.376v8.038c-.039-.038-.075-.078-.114-.116-9.018-8.815-20.932-13.669-33.545-13.669h-27.769c-12.553 0-24.408 4.811-33.411 13.545v-7.798c-.001-11.235 9.14-20.376 20.376-20.376zm89.794 77.278c-.583 7.928-6.367 14.94-9.553 14.973a7.512 7.512 0 00-7.298 6.099c-4.217 22.019-23.573 37.999-46.024 37.999-22.46 0-41.817-15.99-46.027-38.019a7.513 7.513 0 00-7.898-6.084c-3.13.267-9.127-7.096-9.707-14.968-.179-2.441-.554-7.521 8.007-8.152 4.171-.28 8.65-2.184 8.774-7.304.432-17.738 15.221-32.17 32.966-32.17h27.769c18.038 0 32.519 14.124 32.966 32.155.102 4.098 3.438 7.34 7.573 7.325l.21-.003c.088-.001.177-.003.267-.002 8.529.645 8.155 5.714 7.975 8.151z"/><circle cx="147.671" cy="301.194" r="7.304"/><circle cx="193.822" cy="301.194" transform="rotate(-67.48 193.925 301.157)" r="7.304"/><path d="M187.186 328.802h-32.483c-1.707 0-2.887 1.718-2.269 3.309 2.88 7.412 10.081 12.667 18.511 12.667s15.631-5.255 18.51-12.667c.618-1.591-.562-3.309-2.269-3.309z"/></svg>