<svg height="512pt" viewBox="0 -2 512 512" width="512pt" xmlns="http://www.w3.org/2000/svg"><path d="M424.148 429.371l-11.28-3.797a10.766 10.766 0 01-4.407-2.812c-1.957-2.04-3.035-4.739-3.035-7.602v-11.605l3.363-2.051c7.004-4.27 11.352-12.024 11.352-20.23v-37.466c0-14.421-11.72-26.156-26.125-26.156h-23.051c-14.406 0-26.125 11.735-26.125 26.157v37.464c0 8.207 4.351 15.961 11.355 20.23l3.371 2.056v11.601c0 3.043-1.285 5.988-3.507 8.067a10.847 10.847 0 01-3.965 2.355l-11.266 3.79a41.69 41.69 0 00-15.55 9.37l-.126.117-.129.118c-.043.043-.078.086-.12.128-.106.11-.212.22-.313.336-.07.079-.137.16-.203.243-.082.105-.164.21-.242.32-.07.101-.141.203-.208.309-.058.093-.12.187-.175.285-.07.12-.137.242-.2.363-.042.09-.09.18-.128.27-.059.132-.118.261-.168.394-.04.094-.07.188-.106.281-.043.13-.086.258-.125.395l-.082.312c-.027.125-.055.246-.078.367a9.382 9.382 0 00-.098.695c-.011.138-.02.274-.027.41-.004.099-.004.2-.004.298a7.888 7.888 0 00.035.73c.012.133.031.27.051.407a10.136 10.136 0 00.14.695c.036.129.075.258.114.387.031.097.062.199.098.296.05.145.109.29.171.438.024.05.04.105.063.156a35.012 35.012 0 013.2 14.703v38.614a7.5 7.5 0 007.5 7.5 7.5 7.5 0 007.5-7.5v-38.614c0-5.304-.821-10.476-2.43-15.445a27.124 27.124 0 016.43-3.164l11.257-3.785a25.976 25.976 0 005.71-2.739 66.34 66.34 0 009.466 2.043l-11.293 39.926a7.501 7.501 0 001.633 7.047l13.789 15.379a7.496 7.496 0 005.398 2.492h.188a7.5 7.5 0 005.324-2.219l15.25-15.375a7.511 7.511 0 001.832-7.523l-12.496-39.953a66.29 66.29 0 009.847-2.402 25.877 25.877 0 006.582 3.324l11.254 3.785c11.094 3.738 18.547 14.133 18.547 25.86v31.363c0 4.144 3.356 7.5 7.5 7.5a7.5 7.5 0 007.5-7.5v-31.364c0-18.172-11.554-34.277-28.758-40.074zm-41.937-4.644a51.273 51.273 0 01-9.234-.649 25.921 25.921 0 001.59-8.918v-3.031a23.525 23.525 0 007.925 1.379 23.56 23.56 0 007.934-1.383v3.035c0 2.91.476 5.75 1.39 8.43a51.162 51.162 0 01-9.605 1.137zm-22.367-61.243l13.5-7.046 31.797 10.238v14.594a8.748 8.748 0 01-4.164 7.43l-13.985 8.527a8.616 8.616 0 01-9 0l-13.984-8.528a8.748 8.748 0 01-4.164-7.43zm11.12-30.832h23.056c6.132 0 11.12 5.004 11.12 11.157v7.105l-30.187-9.719a7.5 7.5 0 00-5.773.492l-9.336 4.875v-2.753c0-6.153 4.988-11.157 11.12-11.157zm11.075 152.871l-5.723-6.382 5.809-20.54L388.508 479zm-74.637-71.011l-13.875-4.676a15.265 15.265 0 01-6.132-3.879c0-.004-.004-.008-.008-.012a15.286 15.286 0 01-4.239-10.59V380.11l4.98-3.035c8.11-4.945 13.15-13.922 13.15-23.43v-46.121c0-16.8-13.653-30.468-30.43-30.468h-28.38c-16.777 0-30.425 13.668-30.425 30.468v46.122c0 9.507 5.035 18.484 13.145 23.43l4.984 3.038v15.242c0 4.235-1.781 8.329-4.863 11.204a15.09 15.09 0 01-5.528 3.28l-13.86 4.677c-10.163 3.425-18.937 10.07-25.046 18.742a42.247 42.247 0 00-8.387-3.887l-11.285-3.797a10.636 10.636 0 01-4.402-2.8 10.97 10.97 0 01-3.043-7.614V403.56l3.367-2.055c7.004-4.27 11.352-12.024 11.352-20.23v-37.466c0-14.421-11.72-26.156-26.125-26.156H119.3c-14.406 0-26.125 11.735-26.125 26.157v37.464c0 8.207 4.351 15.961 11.355 20.23l3.367 2.056v11.601c0 3.05-1.28 5.992-3.507 8.067a10.804 10.804 0 01-3.957 2.355l-11.262 3.79c-17.2 5.796-28.754 21.898-28.754 40.073v31.364a7.5 7.5 0 1015 0v-31.364c0-11.73 7.453-22.12 18.539-25.86l11.258-3.784a25.96 25.96 0 005.707-2.742 65.29 65.29 0 009.465 2.043l-11.293 39.93a7.504 7.504 0 001.633 7.046l13.789 15.379a7.509 7.509 0 005.394 2.492h.188c2 0 3.918-.797 5.328-2.219l15.246-15.378a7.494 7.494 0 001.832-7.52l-12.496-39.953a65.87 65.87 0 009.851-2.406 25.589 25.589 0 006.586 3.324l11.254 3.789a27.005 27.005 0 016.434 3.164 50.04 50.04 0 00-2.426 15.441v38.618a7.5 7.5 0 1015 0v-38.62a35.07 35.07 0 013.2-14.707c4.03-8.82 11.613-15.66 20.808-18.757l13.84-4.668a29.878 29.878 0 007.32-3.622 79.155 79.155 0 0014.148 2.926L231.57 474.47a7.493 7.493 0 001.633 7.047l16.973 18.933a7.507 7.507 0 005.398 2.488 7.5 7.5 0 005.512-2.215l18.773-18.933a7.502 7.502 0 001.832-7.52L265.7 423.134c4.98-.68 9.89-1.828 14.688-3.45a30.233 30.233 0 008.36 4.372l13.858 4.672a7.58 7.58 0 002.399.394 7.505 7.505 0 007.105-5.105 7.494 7.494 0 00-4.707-9.504zm-176.855 10.215a51.273 51.273 0 01-9.234-.649 26.01 26.01 0 001.585-8.918v-3.035a23.44 23.44 0 0015.86 0v3.035c0 2.906.48 5.75 1.39 8.43a51.083 51.083 0 01-9.601 1.137zm-22.367-61.243l13.5-7.046 31.8 10.238v14.594a8.757 8.757 0 01-4.164 7.43l-13.988 8.527a8.609 8.609 0 01-8.996 0l-13.988-8.528a8.757 8.757 0 01-4.164-7.43zm11.125-30.832h23.05c6.133 0 11.125 5.004 11.125 11.157v7.105l-30.19-9.719a7.49 7.49 0 00-5.77.492l-9.34 4.875v-2.753c0-6.153 4.992-11.157 11.125-11.157zm11.07 152.871l-5.723-6.382 5.813-20.54L136.844 479zm125.973-76.652a64.272 64.272 0 01-13.801-1.21 30.278 30.278 0 002.629-12.306v-6.32a27.249 27.249 0 0011.484 2.555 27.27 27.27 0 0011.488-2.559v6.324c0 4.043.801 7.98 2.317 11.625a63.923 63.923 0 01-14.117 1.891zm-13.88-116.816h28.384c8.503 0 15.425 6.937 15.425 15.468v11.13l-39.433-12.7a7.509 7.509 0 00-5.77.492l-14.031 7.328v-6.25c0-8.53 6.922-15.468 15.426-15.468zm-15.425 38.64l18.191-9.5 41.043 13.215v19.235c0 4.312-2.28 8.382-5.957 10.62l-17.218 10.5a12.33 12.33 0 01-12.883 0L233 364.266c-3.672-2.238-5.957-6.312-5.957-10.62zm28.996 153.82l-8.91-9.937 8.996-31.805 9.906 31.664zm0 0" fill="#FDC440"/><path d="M509.805 368.613l-171.54-171.578c-.011-.012-.023-.02-.035-.031l-60.578-60.594c-3.949-3.953-8.836-6.625-14.152-7.824V81.309h82.309c4.418 0 8.28-2.668 9.84-6.801 1.562-4.133.43-8.692-2.887-11.61L333.25 45.711l19.512-17.188c3.316-2.918 4.449-7.476 2.886-11.609-1.558-4.133-5.421-6.805-9.84-6.805H263.5V7.5a7.5 7.5 0 10-15 0v121.61c-4.535 1.374-8.688 3.85-12.133 7.3l-26.676 26.684a7.497 7.497 0 000 10.605c2.93 2.926 7.68 2.93 10.606-.004l26.676-26.68a14.091 14.091 0 0110.035-4.16 14.1 14.1 0 0110.039 4.16l54.098 54.114-23.23 15.324-27.813-19.465a7.5 7.5 0 00-8.813.153l-25.477 19.187-24.445-16.32a7.503 7.503 0 00-6.898-.746l-15.973 6.242 8.024-8.027a7.497 7.497 0 000-10.606c-2.93-2.926-7.68-2.926-10.606 0l-33.254 33.266a.185.185 0 00-.039.039L2.195 370.633a7.5 7.5 0 000 10.605 7.48 7.48 0 005.305 2.196 7.47 7.47 0 005.305-2.196l149.265-149.3 44.22-17.282 25.616 17.106a7.498 7.498 0 008.676-.246l25.379-19.114 27.523 19.266a7.5 7.5 0 008.434.117l30.05-19.828 167.227 167.262a7.477 7.477 0 005.305 2.199 7.487 7.487 0 005.3-2.195 7.506 7.506 0 00.005-10.61zM333.94 25.11l-14.425 12.707a10.524 10.524 0 00-3.563 7.895c0 3.02 1.297 5.898 3.563 7.894L333.94 66.31H263.5v-41.2zm0 0" fill="#FDC440"/></svg>