<svg xmlns="http://www.w3.org/2000/svg" viewBox="0 0 507.737 507.737" width="512" height="512"><g fill="none" stroke="#000" stroke-width="15" stroke-linecap="round" stroke-linejoin="round" stroke-miterlimit="10"><path d="M349.632 429.386l-43.506 10.671c-7.453 1.828-15.091-2.175-17.848-9.349l-18.213-37.295 62.624-15.361 24.012 31.138c5.626 7.311 1.882 18-7.069 20.196zm-252.18 69.42L46.109 472.97c-6.821-3.517-9.951-11.552-7.317-18.772l22.291-34.777 57.311 29.55-2.345 39.251c-.561 9.207-10.404 14.808-18.597 10.584z"/><path d="M482.852 309.102l-41.651 22.319a21.612 21.612 0 00-10.911 14.458l-.416 1.916a24.722 24.722 0 01-17.055 18.428l-28.096 8.429a21.613 21.613 0 00-15.344 19.123l-.981 13.405a24.724 24.724 0 01-18.767 22.207l-36.492 8.951a21.606 21.606 0 00-9.968 5.545l-57.579 56.355M85.407 293.397l-7.599-25.534a55.017 55.017 0 013.186-39.611h0l75.259 31.859 15.971 69.812a47.651 47.651 0 01-5.143 34.383l-48.687 84.665-57.311-29.55 35.22-61.616a25.62 25.62 0 002.313-20.019l-3.287-11.044m60.925-66.632l93.979 19.661a48.415 48.415 0 0130.309 20.442l52.148 77.839-62.624 15.361-30.482-50.288a29.235 29.235 0 00-18.487-13.346l-51.6-11.796m-88.502-89.731l64.759-133.848 66.97 32.393c15.493 7.494 21.977 26.128 14.483 41.62l-2.01 4.155m-28.481 58.885l-16.305 33.707"/><path d="M64.205 70.965c16.983-18.704 44.864-24.865 68.763-13.306h0c13.678 6.616 19.402 23.067 12.787 36.744L94.663 200.032c-6.616 13.678-23.067 19.402-36.744 12.787h0c-29.079-14.065-41.25-49.04-27.184-78.119l15.571-32.192m263.234 55.087h0c-6.758-12.782-22.598-17.666-35.381-10.908l-51.622 27.292a6.59 6.59 0 01-8.906-2.746l-27.292-51.622c-6.758-12.782-22.598-17.666-35.381-10.908h0c-12.782 6.758-17.666 22.598-10.908 35.381l30.372 57.448 6.334 11.98c10.018 18.948 33.499 26.188 52.448 16.17l69.428-36.706c12.782-6.758 17.666-22.599 10.908-35.381zm-10.908 35.381l86.092 181.675M209.219 162.885l-45.693 25.602M206.84 88.65h0c-18.725-9.057-26.562-31.578-17.505-50.303l6.044-12.496c7.813-16.153 27.242-22.914 43.396-15.101l9.311 4.504C264.239 23.067 271 42.496 263.187 58.65l-6.044 12.496c-9.057 18.724-31.578 26.561-50.303 17.504z"/></g></svg>