<svg height="512" viewBox="0 0 512.007 512.007" width="512" xmlns="http://www.w3.org/2000/svg"><path d="M503.855 497.007h-79.188V322.051l20.98-16.112c6.848-5.25 15.366-8.142 23.986-8.142h34.221c4.143 0 7.5-3.358 7.5-7.5s-3.357-7.5-7.5-7.5h-34.221c-11.901 0-23.661 3.991-33.118 11.242l-11.849 9.099V183.594a26.043 26.043 0 00-14.043-23.162l-15.786-8.232a7.5 7.5 0 00-6.935 13.3l15.785 8.232a11.089 11.089 0 015.979 9.862v6.311c-1.247-.365-27.777-6.181-28.635-6.404-.341-.035-.299-.129-1.63-.179h-55.927l5.135-20.567c3.242-12.98 1.235-26.444-5.65-37.912a49.88 49.88 0 00-14.416-15.401c11.078-5.889 19.72-16.26 22.99-29.361l3.71-14.861 11.029 2.753a7.523 7.523 0 001.822.225 7.503 7.503 0 007.271-5.686 7.499 7.499 0 00-5.46-9.093l-11.029-2.753.75-3.003c4.484-17.964-6.487-36.229-24.456-40.714l-23.772-5.934c-8.704-2.173-17.734-.828-25.424 3.787-7.691 4.616-13.125 11.952-15.297 20.657l-8.093 32.418c-2.941 11.902-.949 25.858 6.479 36.745a50.237 50.237 0 00-21.13 7.576 23.303 23.303 0 00-3.25-9.938 23.239 23.239 0 00-14.39-10.654l-16.306-4.07c-12.521-3.121-25.238 4.517-28.361 17.031l-14.671 58.772-7.317-1.913c-12.868-3.362-26.117 4.36-29.526 17.22l-7.82 29.496c-3.389 12.784 3.897 25.714 16.588 29.437l57.558 14.974v21.237c0 10.068 2.883 19.728 7.964 28.018l14.36 38.852a6.957 6.957 0 01-1.933 7.614l-87.734 76.944L5.654 453.196a7.5 7.5 0 005 14.142l78.2-27.646c-2.843 7.271-1.653 15.841 3.84 22.105l30.879 35.209H8.154c-4.143 0-7.5 3.358-7.5 7.5s3.357 7.5 7.5 7.5h495.701a7.5 7.5 0 100-14.999zM386.902 200.176l18.87 4.201a4.948 4.948 0 013.895 4.857v7.5a4.721 4.721 0 01-4.717 4.716h-18.048zM310.1 132.564c4.822 8.032 6.229 17.463 3.957 26.556l-5.2 20.828-30.146-65.807 9.817 2.452c9.089 2.268 16.75 7.94 21.572 15.971zM265.23 29.091c2.398-8.777 11.64-16.353 22.535-13.523l23.772 5.934c9.944 2.482 16.017 12.588 13.536 22.527l-.75 3.003-59.843-14.938zm-8.092 32.418l3.71-14.861 59.844 14.939-3.71 14.861c-4.118 16.499-20.892 26.573-37.391 22.452-7.986-1.994-14.726-6.983-18.973-14.043-4.239-7.063-5.476-15.355-3.48-23.348zm2.884 48.14l9.286 19.742a26.479 26.479 0 00-11.124 2.322c-6.477 2.897-11.438 8.143-13.97 14.771s-2.33 13.846.566 20.323l14.318 32.012c-15.753 3.821-39.133-1.104-52.687-5.075l14.462-57.934c4.426-17.615 21.535-28.774 39.149-26.161zm5.768 102.856c6.793 10.765 17.344 18.57 29.452 22.001l-5.009 20.078-42.399-10.58-50.805-12.682 5.751-23.031c9.605 2.773 26.551 6.864 42.961 6.864 6.984 0 13.869-.749 20.049-2.65zm-130.382 3.113l-8.306-2.437a9.16 9.16 0 01-6.311-11.199l7.82-29.496c1.289-3.773 5.581-8.062 11.233-6.551l7.477 1.955zm49.089 3.973a8.338 8.338 0 01-3.809 5.119 8.345 8.345 0 01-6.354.947l-24.449-6.103 5.181-20.756 6.68-26.761 8.838 2.757a7.492 7.492 0 002.235.342 7.5 7.5 0 002.231-14.662l-9.665-3.015 14.793-59.261c1.121-4.491 5.688-7.233 10.176-6.11l16.306 4.07a8.338 8.338 0 015.163 3.822 8.342 8.342 0 01.947 6.353zm26.218 129.959c6.796-5.951 9.252-15.64 6.114-24.103l-4.671-12.638c2.079 1.062 42.859 16.445 45.528 17.543l-.29 19.227a29.59 29.59 0 01-10.057 21.769l-93.95 82.385-26.721-30.472zm61.678.251l.207-13.735 17.531 6.715a6.977 6.977 0 014.456 6.478v37.189H252.87l4.361-3.824c9.456-8.302 14.982-20.268 15.162-32.823zM136.612 489.124l-32.641-37.217a6.578 6.578 0 01.608-9.272l10.809-9.479 28.842 32.886zm165.476-67.373a7.5 7.5 0 00-7.5 7.5v67.756H149.754c.093-.238 9.426-28.401 9.426-28.401l76.586-67.159h66.283l.039.002a7.5 7.5 0 007.5-7.5v-44.691c0-9.025-5.663-17.258-14.091-20.486l-75.161-28.789c-14.893-5.704-24.898-20.251-24.898-36.198v-17.396l46.619 11.633 49.997 12.48 48.33 43.682a29.59 29.59 0 019.733 21.918V461.06h-40.529v-31.809a7.5 7.5 0 00-7.5-7.5zm14.07 75.256a6.577 6.577 0 01-6.57-6.57V476.06h43.741l12.332 20.947zm93.509 0h-27.959a13.556 13.556 0 00-1.8-5.365l-14.791-25.125v-98.735l44.55-34.212zm-44.55-148.138v-12.767a44.618 44.618 0 00-14.676-33.046l-46.383-41.921 6.158-24.684h33.922c4.143 0 7.5-3.358 7.5-7.5s-3.357-7.5-7.5-7.5h-34.951c-14.279 0-27.283-8.419-33.125-21.441l-17.589-39.326a11.484 11.484 0 01-.247-8.847c1.103-2.886 3.262-5.169 6.082-6.431s5.963-1.348 8.847-.247a11.488 11.488 0 016.41 6.04l.05.107 17.555 39.25a13.187 13.187 0 0012.018 7.766h62.715v30.629a7.5 7.5 0 007.5 7.5h30.265v78.206z"/></svg>