<svg height="512" width="512" xmlns="http://www.w3.org/2000/svg"><path d="M256 434.803c94.798 0 171.922-77.124 171.922-171.922 0-34.413-10.022-67.325-29.048-95.652 24.686-5.167 45.967-21.15 57.792-44.249a7.498 7.498 0 00-13.349-6.833c-11.964 23.372-35.693 37.891-61.927 37.891-38.334 0-69.521-31.187-69.521-69.521s31.187-69.521 69.521-69.521 69.521 31.187 69.521 69.521a7.498 7.498 0 0014.996 0C465.907 37.914 427.993 0 381.39 0s-84.517 37.914-84.517 84.516c0 3.914.29 7.761.808 11.535A172.377 172.377 0 00256 90.959c-34.751.029-67.034 10.289-94.176 28.163-46.788 30.754-77.746 83.705-77.746 143.759 0 5.913.314 11.854.915 17.728-27.872 9.278-48.033 35.589-48.033 66.537 0 27.611 34.407 84.292 54.916 115.622 3.371 5.149 9.056 8.224 15.207 8.224s11.836-3.074 15.207-8.224c10.231-15.629 23.92-37.567 35.071-59.058 28.974 20.366 62.926 31.093 98.639 31.093zm-15.693-315.626l11.708 13.425c3.11 3.566 2.925 8.98-.421 12.326l-24.042 24.042a22.455 22.455 0 01-15.98 6.619h-24.363a44.062 44.062 0 00-25.245 7.904l-18.931 13.144c-.123.084-.376.261-.783.049-.406-.212-.406-.522-.406-.671v-25.664c0-6.501 2.531-12.612 7.128-17.21l22.278-22.278c18.942-12.202 40.667-20.437 63.993-23.533.412 4.298 2.118 8.469 5.064 11.847zM99.073 262.881c0-33.037 10.271-63.716 27.774-89.029v22.162a15.708 15.708 0 008.451 13.959 15.707 15.707 0 0016.286-1.019l18.931-13.144a29.138 29.138 0 0116.693-5.226h24.363c10.042 0 19.483-3.91 26.583-11.011l24.043-24.042c8.899-8.9 9.39-23.301 1.118-32.786l-11.708-13.424a6.074 6.074 0 01-1.44-3.247c1.936-.071 3.878-.12 5.831-.12 15.588 0 30.971 2.284 45.733 6.774 11.641 32.769 42.945 56.304 79.657 56.304.177 0 .353-.008.53-.009.184.363.392.719.641 1.059 14.905 20.292 24.537 43.424 28.418 67.93l-3.735 2.511a21.315 21.315 0 01-11.935 3.639 21.423 21.423 0 01-19.513-12.626l-10.276-22.878a49.204 49.204 0 01-3.903-13.765c-.539-4.106-4.307-6.991-8.409-6.459a7.499 7.499 0 00-6.46 8.409 64.176 64.176 0 005.093 17.959l10.276 22.879c5.86 13.047 18.888 21.477 33.191 21.477a36.221 36.221 0 0017.402-4.451c.138 2.713.215 5.437.215 8.173 0 86.529-70.397 156.926-156.926 156.926-33.378 0-65.064-10.267-91.913-29.726 7.749-16.607 13.118-32.037 13.118-42.934 0-38.666-31.457-70.123-70.123-70.123-2.476 0-4.921.133-7.332.385-.438-4.82-.674-9.683-.674-14.527zm10.67 191.675c-.821 1.254-2.019 1.441-2.661 1.441s-1.84-.187-2.661-1.441c-32.853-50.186-52.467-90.338-52.467-107.409 0-30.397 24.73-55.127 55.128-55.127 30.397 0 55.127 24.73 55.127 55.127.001 17.07-19.613 57.224-52.466 107.409z"/><path d="M184.577 289.982l4.51 3.192a19.234 19.234 0 018.133 16.458l-2.6 70.681a24.223 24.223 0 0010.185 20.68c8.326 5.93 19.559 5.991 27.95.162l48.617-33.776a81.083 81.083 0 0019.977-19.802l31.326-44.252c4.421-6.245 6.145-13.837 4.855-21.378s-5.439-14.129-11.684-18.55l-78.286-55.42c-8.353-5.913-18.508-8.219-28.598-6.495-10.089 1.726-18.901 7.276-24.815 15.63L176.4 242.181c-10.922 15.434-7.255 36.876 8.177 47.801zm4.065-39.135l17.747-25.069a23.17 23.17 0 0115.103-9.513c1.33-.227 2.66-.34 3.981-.34 4.783 0 9.441 1.472 13.425 4.293l78.286 55.419a13.558 13.558 0 015.567 8.839 13.553 13.553 0 01-2.314 10.186l-31.327 44.252a66.125 66.125 0 01-16.294 16.151L224.2 388.841a9.318 9.318 0 01-10.696-.062 9.267 9.267 0 01-3.897-7.914l2.6-70.681a34.187 34.187 0 00-14.455-29.249l-4.51-3.193c-8.684-6.146-10.748-18.212-4.6-26.895zm-143.681-84.25a7.496 7.496 0 0010.054-3.368C93.261 86.44 170.274 38.738 256 38.738c.479 0 .961.012 1.441.015L247.17 48.779a7.498 7.498 0 1010.476 10.73l22.73-22.189a7.498 7.498 0 00.296-10.424L259.238 3.453a7.496 7.496 0 00-10.593-.474 7.497 7.497 0 00-.474 10.593l9.313 10.187c-.494-.003-.99-.015-1.484-.015-45.379 0-89.547 12.755-127.728 36.886-37.149 23.478-67.122 56.645-86.681 95.913a7.499 7.499 0 003.37 10.054zm-13.357 96.537c0-23.69 3.672-47.016 10.913-69.331a7.499 7.499 0 00-14.263-4.629c-7.727 23.812-11.645 48.695-11.645 73.959 0 14.586 1.322 29.197 3.931 43.427a7.501 7.501 0 008.726 6.024 7.496 7.496 0 006.023-8.726 226.483 226.483 0 01-3.685-40.724z"/><path d="M473.271 162.497a7.496 7.496 0 00-9.957-3.646 7.497 7.497 0 00-3.646 9.957c13.753 29.644 20.727 61.381 20.727 94.326 0 123.732-100.663 224.395-224.395 224.395-25.732 0-50.775-4.28-74.666-12.724l13.331-6.664a7.499 7.499 0 00-6.706-13.413l-28.412 14.204a7.498 7.498 0 00-3.459 9.838l13.268 28.861c1.733 3.801 6.269 5.395 9.944 3.681a7.499 7.499 0 003.681-9.944l-5.527-12.023c25.158 8.752 51.5 13.18 78.548 13.18 63.944 0 124.06-24.901 169.275-70.116s70.116-105.331 70.116-169.275c-.002-35.141-7.444-69.001-22.122-100.637zM107.083 309.55c-21.577 0-39.13 17.554-39.13 39.13 0 21.577 17.554 39.13 39.13 39.13s39.13-17.554 39.13-39.13-17.554-39.13-39.13-39.13zm0 63.265c-13.308 0-24.135-10.827-24.135-24.135s10.827-24.135 24.135-24.135 24.135 10.827 24.135 24.135c0 13.309-10.827 24.135-24.135 24.135zm273.915-241.046a7.498 7.498 0 007.498-7.498v-2.697c9.404-2.984 15.418-11.281 16.795-19.471 1.871-11.127-4.159-21.178-15.004-25.012-5.679-2.008-11.951-4.425-15.4-7.13-.789-.619-1.118-2.235-.799-3.929.17-.901.958-3.912 3.972-4.82 6.255-1.884 10.227 1.272 10.66 1.638l-.11-.098.669.384c7.32 4.198 14.953-4.968 9.498-11.407-1.992-1.837-5.599-4.071-10.281-5.259v-1.708a7.498 7.498 0 00-14.996 0v2.172c-7.265 2.287-12.677 8.514-14.148 16.321-1.375 7.298 1.031 14.389 6.281 18.506 5.141 4.032 12.486 6.934 19.656 9.469 5.44 1.923 5.602 6.081 5.214 8.388-.653 3.885-3.922 8.084-9.555 8.121-5.987.044-7.686-.229-12.191-3.176a7.499 7.499 0 00-10.89 3.079c-1.638 3.429-.32 7.521 2.867 9.591 4.831 3.136 8.503 4.542 12.765 5.128v1.911a7.5 7.5 0 007.499 7.497z"/></svg>