<svg xmlns="http://www.w3.org/2000/svg" data-name="Layer 1" viewBox="0 0 24 24" width="512" height="512"><path d="M22.817 14.354A3.955 3.955 0 0024 11.522a3.882 3.882 0 00-2.113-3.455 10.093 10.093 0 00-19.775 0A3.883 3.883 0 000 11.522a3.993 3.993 0 003.281 3.924 9.481 9.481 0 001.291 1.9 9.924 9.924 0 00-2.411 4.892 1.5 1.5 0 001.213 1.741A1.6 1.6 0 003.64 24a1.5 1.5 0 001.474-1.236 6.946 6.946 0 011.7-3.435A9.581 9.581 0 0012 21a9.581 9.581 0 005.19-1.671 6.946 6.946 0 011.7 3.435A1.5 1.5 0 0020.36 24a1.6 1.6 0 00.266-.023 1.5 1.5 0 001.213-1.741 9.924 9.924 0 00-2.411-4.892 9.459 9.459 0 001.291-1.9 3.958 3.958 0 002.098-1.09zM20 12.508h-.173a1.514 1.514 0 00-1.538 1A7.178 7.178 0 0112 18a7.178 7.178 0 01-6.293-4.5 1.5 1.5 0 00-1.413-1c-.042 0-.083 0-.125.005H3.99a.988.988 0 01-.99-.983.884.884 0 01.727-.867 1.5 1.5 0 001.222-1.318A7.057 7.057 0 017.51 4.6a4.494 4.494 0 007.673 3.079 1.5 1.5 0 10-2.123-2.118 1.535 1.535 0 01-2.121 0A1.5 1.5 0 0112 3a7.07 7.07 0 017.049 6.337 1.5 1.5 0 001.224 1.318.884.884 0 01.727.867.98.98 0 01-.292.7.992.992 0 01-.708.286z"/><circle cx="9.5" cy="11.5" r="1.5"/><circle cx="14.5" cy="11.5" r="1.5"/></svg>