<?xml version="1.0" encoding="iso-8859-1"?>
<!-- Generator: Adobe Illustrator 19.0.0, SVG Export Plug-In . SVG Version: 6.00 Build 0)  -->
<svg version="1.1" id="Layer_1" xmlns="http://www.w3.org/2000/svg" xmlns:xlink="http://www.w3.org/1999/xlink" x="0px" y="0px"
	 viewBox="0 0 512 512" style="enable-background:new 0 0 512 512;" xml:space="preserve">
<g>
	<g>
		<path d="M233.244,333.369h-73.956c-3.141,0-5.689,2.547-5.689,5.689v143.36c0,3.141,2.547,5.689,5.689,5.689h73.956
			c3.141,0,5.689-2.547,5.689-5.689v-143.36C238.933,335.916,236.386,333.369,233.244,333.369z"/>
	</g>
</g>
<g>
	<g>
		<path d="M233.244,179.769h-73.956c-3.141,0-5.689,2.547-5.689,5.689v108.089c0,3.141,2.547,5.689,5.689,5.689h73.956
			c3.141,0,5.689-2.547,5.689-5.689V185.458C238.933,182.316,236.386,179.769,233.244,179.769z"/>
	</g>
</g>
<g>
	<g>
		<path d="M352.711,333.369h-73.956c-3.141,0-5.689,2.547-5.689,5.689v143.36c0,3.141,2.547,5.689,5.689,5.689h73.956
			c3.141,0,5.689-2.547,5.689-5.689v-143.36C358.4,335.916,355.853,333.369,352.711,333.369z"/>
	</g>
</g>
<g>
	<g>
		<path d="M113.778,179.769H5.689c-3.141,0-5.689,2.547-5.689,5.689v108.089c0,3.141,2.547,5.689,5.689,5.689h108.089
			c3.141,0,5.689-2.547,5.689-5.689V185.458C119.467,182.316,116.919,179.769,113.778,179.769z"/>
	</g>
</g>
<g>
	<g>
		<path d="M472.175,54.613h-69.402V40.96c0-9.425-7.641-17.067-17.067-17.067S368.64,31.535,368.64,40.96v13.653H143.36V40.96
			c0-9.425-7.641-17.067-17.067-17.067s-17.067,7.641-17.067,17.067v13.653H39.825C17.83,54.613,0,72.443,0,94.438v45.509
			c0,3.141,2.547,5.689,5.689,5.689h500.622c3.141,0,5.689-2.547,5.689-5.689V94.438C512,72.443,494.17,54.613,472.175,54.613z"/>
	</g>
</g>
<g>
	<g>
		<path d="M113.778,333.369H5.689c-3.141,0-5.689,2.547-5.689,5.689v109.236c0,21.988,17.826,39.813,39.813,39.813h73.965
			c3.141,0,5.689-2.547,5.689-5.689v-143.36C119.467,335.916,116.919,333.369,113.778,333.369z"/>
	</g>
</g>
<g>
	<g>
		<path d="M506.311,333.369H398.222c-3.141,0-5.689,2.547-5.689,5.689v143.36c0,3.141,2.548,5.689,5.689,5.689h73.965
			c21.988,0,39.813-17.826,39.813-39.813V339.058C512,335.916,509.453,333.369,506.311,333.369z"/>
	</g>
</g>
<g>
	<g>
		<path d="M352.711,179.769h-73.956c-3.141,0-5.689,2.547-5.689,5.689v108.089c0,3.141,2.547,5.689,5.689,5.689h73.956
			c3.141,0,5.689-2.547,5.689-5.689V185.458C358.4,182.316,355.853,179.769,352.711,179.769z"/>
	</g>
</g>
<g>
	<g>
		<path d="M506.311,179.769H398.222c-3.141,0-5.689,2.547-5.689,5.689v108.089c0,3.141,2.548,5.689,5.689,5.689h108.089
			c3.141,0,5.689-2.547,5.689-5.689V185.458C512,182.316,509.453,179.769,506.311,179.769z"/>
	</g>
</g>
<g>
</g>
<g>
</g>
<g>
</g>
<g>
</g>
<g>
</g>
<g>
</g>
<g>
</g>
<g>
</g>
<g>
</g>
<g>
</g>
<g>
</g>
<g>
</g>
<g>
</g>
<g>
</g>
<g>
</g>
</svg>
