<?xml version="1.0" encoding="iso-8859-1"?>
<!-- Generator: Adobe Illustrator 19.0.0, SVG Export Plug-In . SVG Version: 6.00 Build 0)  -->
<svg version="1.1" id="Capa_1" xmlns="http://www.w3.org/2000/svg" xmlns:xlink="http://www.w3.org/1999/xlink" x="0px" y="0px"
	 viewBox="0 0 511.999 511.999" style="enable-background:new 0 0 511.999 511.999;" xml:space="preserve">
<g>
	<g>
		<path d="M419.604,74.587L322.657,1.535c-1.32-0.994-2.927-1.532-4.58-1.532h-33.416c-0.02,0-0.04-0.003-0.059-0.003
			s-0.04,0.003-0.059,0.003H138.552c-0.02,0-0.04-0.003-0.059-0.003s-0.04,0.003-0.059,0.003h-33.421
			c-1.653,0-3.26,0.538-4.58,1.532L3.488,74.587c-3.196,2.409-3.981,6.882-1.794,10.235l43.678,66.964
			c1.783,2.731,5.105,4.025,8.269,3.212l43.761-11.252v33.706c0,4.203,3.406,7.61,7.61,7.61s7.61-3.407,7.61-7.61v-43.52
			c0-2.352-1.088-4.572-2.947-6.014c-1.86-1.442-4.281-1.943-6.559-1.356l-47.979,12.338L18.326,82.462l89.233-67.24h23.694
			c3.851,40.921,38.384,73.051,80.295,73.051s76.444-32.131,80.295-73.051h23.689l89.234,67.24l-36.812,56.436l-47.979-12.338
			c-2.277-0.584-4.698-0.085-6.559,1.357c-1.859,1.441-2.947,3.661-2.947,6.014v43.86c0,4.203,3.406,7.61,7.61,7.61
			s7.61-3.407,7.61-7.61v-34.046l43.762,11.253c3.164,0.813,6.488-0.48,8.269-3.212l43.678-66.964
			C423.585,81.469,422.801,76.995,419.604,74.587z M211.548,73.054c-33.51,0-61.201-25.321-64.987-57.832h129.975
			C272.749,47.733,245.057,73.054,211.548,73.054z"/>
	</g>
</g>
<g>
	<g>
		<path d="M191.045,310.469h-78.422V202.817c0-4.203-3.407-7.61-7.61-7.61c-4.204,0-7.61,3.407-7.61,7.61v115.262
			c0,4.203,3.406,7.61,7.61,7.61h86.032c4.204,0,7.61-3.407,7.61-7.61S195.248,310.469,191.045,310.469z"/>
	</g>
</g>
<g>
	<g>
		<path d="M511.262,352.301l-25.686-91.941c-1.13-4.047-5.331-6.416-9.377-5.281c-4.047,1.13-6.412,5.329-5.281,9.376l23.639,84.611
			l-103.724,28.978l-30.927-84.79c-1.096-3.003-3.952-5.002-7.149-5.002s-6.053,1.999-7.149,5.002l-30.927,84.79l-103.723-28.978
			l40.241-144.038h203.118l9.557,34.209c1.13,4.047,5.335,6.412,9.376,5.282c4.048-1.131,6.413-5.329,5.282-9.377l-11.11-39.771
			c-0.918-3.288-3.914-5.562-7.33-5.562H245.422c-3.414,0-6.411,2.274-7.33,5.562l-43.843,156.93
			c-1.13,4.047,1.234,8.246,5.281,9.377l117.836,32.92c0.683,0.191,1.372,0.282,2.051,0.282c3.123,0,6.027-1.936,7.146-5.003
			l26.192-71.807l26.192,71.807c1.362,3.735,5.372,5.792,9.196,4.721l117.836-32.92c1.944-0.544,3.593-1.837,4.584-3.595
			C511.553,356.325,511.804,354.244,511.262,352.301z"/>
	</g>
</g>
<g>
	<g>
		<path d="M186.259,448.503l-30.006-30.003v-65.59c0-4.203-3.406-7.61-7.61-7.61H90.082c-4.204,0-7.61,3.407-7.61,7.61v43.704
			c0,4.203,3.406,7.61,7.61,7.61s7.61-3.407,7.61-7.61V360.52h43.342v61.131c0,2.018,0.802,3.954,2.228,5.381l32.233,32.233
			c8.568,8.569,8.568,22.51,0,31.079c-4.15,4.151-9.669,6.437-15.538,6.437c-5.87,0-11.389-2.286-15.538-6.437l-18.309-18.307
			c-2.971-2.972-7.789-2.972-10.761,0s-2.972,7.79,0,10.761l18.308,18.307c7.025,7.025,16.366,10.894,26.302,10.894
			c9.935,0,19.276-3.869,26.302-10.894C200.76,486.602,200.76,463.005,186.259,448.503z"/>
	</g>
</g>
<g>
	<g>
		<path d="M104.243,428.719l-30.004-30.004v-65.59c0-4.203-3.406-7.61-7.61-7.61H8.068c-4.204,0-7.61,3.407-7.61,7.61v93.861
			c0,2.018,0.802,3.954,2.228,5.381l48.955,48.954c7.025,7.025,16.366,10.894,26.301,10.894c9.935,0,19.276-3.869,26.301-10.894
			c7.026-7.025,10.895-16.365,10.895-26.301C115.137,445.084,111.268,435.744,104.243,428.719z M93.481,470.56
			c-4.15,4.151-9.669,6.437-15.538,6.437c-5.87,0-11.388-2.286-15.538-6.437l-46.725-46.724v-83.099H59.02v61.131
			c0,2.018,0.802,3.954,2.228,5.381l32.234,32.233c4.151,4.151,6.437,9.67,6.437,15.539C99.92,460.89,97.632,466.409,93.481,470.56z
			"/>
	</g>
</g>
<g>
</g>
<g>
</g>
<g>
</g>
<g>
</g>
<g>
</g>
<g>
</g>
<g>
</g>
<g>
</g>
<g>
</g>
<g>
</g>
<g>
</g>
<g>
</g>
<g>
</g>
<g>
</g>
<g>
</g>
</svg>
