<?xml version="1.0" encoding="UTF-8" standalone="no"?>
<!-- Created with Inkscape (http://www.inkscape.org/) -->

<svg
   version="1.1"
   id="svg201"
   xml:space="preserve"
   width="682.66669"
   height="682.66669"
   viewBox="0 0 682.66669 682.66669"
   xmlns="http://www.w3.org/2000/svg"
   xmlns:svg="http://www.w3.org/2000/svg"><defs
     id="defs205"><clipPath
       clipPathUnits="userSpaceOnUse"
       id="clipPath215"><path
         d="M 0,512 H 512 V 0 H 0 Z"
         id="path213" /></clipPath></defs><g
     id="g207"
     transform="matrix(1.3333333,0,0,-1.3333333,0,682.66667)"><g
       id="g209"><g
         id="g211"
         clip-path="url(#clipPath215)"><g
           id="g217"
           transform="translate(368.2837,489.2417)"><path
             d="M 0,0 H 66.923 C 88.387,0 105.95,-17.564 105.95,-39.028 V -53.09 c 0,-21.493 -17.563,-39.056 -39.027,-39.056 H 0 m -33.22,0 h -158.583 m 0,92.146 H -33.22 m -191.803,-92.146 h -66.895 c -21.492,0 -39.055,17.563 -39.055,39.056 v 14.062 c 0,21.464 17.563,39.028 39.055,39.028 h 66.895"
             style="fill:none;stroke:#000000;stroke-width:15;stroke-linecap:round;stroke-linejoin:round;stroke-miterlimit:10;stroke-dasharray:none;stroke-opacity:1"
             id="path219" /></g><g
           id="g221"
           transform="translate(76.3657,316.022)"><path
             d="m 0,0 v -279.685 c 0,-15.856 12.952,-28.837 28.836,-28.837 h 301.141 c 15.884,0 28.864,12.981 28.864,28.837 V 0"
             style="fill:none;stroke:#000000;stroke-width:15;stroke-linecap:round;stroke-linejoin:round;stroke-miterlimit:10;stroke-dasharray:none;stroke-opacity:1"
             id="path223" /></g><g
           id="g225"
           transform="translate(76.3657,181.4883)"><path
             d="m 0,0 h -56.818 c -4.327,0 -7.828,3.53 -7.828,7.829 v 28.722 c 0,20.126 16.453,36.58 36.55,36.58 H 0"
             style="fill:none;stroke:#000000;stroke-width:15;stroke-linecap:round;stroke-linejoin:round;stroke-miterlimit:10;stroke-dasharray:none;stroke-opacity:1"
             id="path227" /></g><g
           id="g229"
           transform="translate(23.3052,181.4883)"><path
             d="m 0,0 v -66.384 c 0,-29.292 23.826,-53.262 53.061,-53.517"
             style="fill:none;stroke:#000000;stroke-width:15;stroke-linecap:round;stroke-linejoin:round;stroke-miterlimit:10;stroke-dasharray:none;stroke-opacity:1"
             id="path231" /></g><g
           id="g233"
           transform="translate(435.207,181.4883)"><path
             d="m 0,0 h 57.245 c 4.327,0 7.828,3.53 7.828,7.829 v 28.722 c 0,20.126 -16.453,36.58 -36.55,36.58 H 0"
             style="fill:none;stroke:#000000;stroke-width:15;stroke-linecap:round;stroke-linejoin:round;stroke-miterlimit:10;stroke-dasharray:none;stroke-opacity:1"
             id="path235" /></g><g
           id="g237"
           transform="translate(488.6948,181.4883)"><path
             d="m 0,0 v -66.384 c 0,-29.435 -24.083,-53.517 -53.488,-53.517"
             style="fill:none;stroke:#000000;stroke-width:15;stroke-linecap:round;stroke-linejoin:round;stroke-miterlimit:10;stroke-dasharray:none;stroke-opacity:1"
             id="path239" /></g><g
           id="g241"
           transform="translate(274.4316,234.9204)"><path
             d="m 0,0 h 79.676 c 44.606,0 81.099,36.494 81.099,81.102 v 81.073 m -358.841,0 V 81.102 C -198.066,36.494 -161.601,0 -116.995,0 h 80.416"
             style="fill:none;stroke:#000000;stroke-width:15;stroke-linecap:round;stroke-linejoin:round;stroke-miterlimit:10;stroke-dasharray:none;stroke-opacity:1"
             id="path243" /></g><g
           id="g245"
           transform="translate(176.4805,318.5269)"><path
             d="m 0,0 v -18.816 c 0,-8.398 -6.86,-15.258 -15.258,-15.258 h -2.704 c -8.397,0 -15.258,6.86 -15.258,15.258 V 0 Z m -17.962,185.973 h 2.704 C -6.86,185.973 0,179.113 0,170.715 V 36.324 h -33.22 v 134.391 c 0,8.398 6.861,15.258 15.258,15.258 z"
             style="fill:none;stroke:#000000;stroke-width:15;stroke-linecap:round;stroke-linejoin:round;stroke-miterlimit:10;stroke-dasharray:none;stroke-opacity:1"
             id="path247" /></g><g
           id="g249"
           transform="translate(368.2837,318.5269)"><path
             d="m 0,0 v -18.816 c 0,-8.398 -6.86,-15.258 -15.258,-15.258 h -2.704 c -8.397,0 -15.258,6.86 -15.258,15.258 V 0 Z m -17.962,185.973 h 2.704 C -6.86,185.973 0,179.113 0,170.715 V 36.324 h -33.22 v 134.391 c 0,8.398 6.861,15.258 15.258,15.258 z"
             style="fill:none;stroke:#000000;stroke-width:15;stroke-linecap:round;stroke-linejoin:round;stroke-miterlimit:10;stroke-dasharray:none;stroke-opacity:1"
             id="path251" /></g><g
           id="g253"
           transform="translate(121.6836,354.8506)"><path
             d="m 0,0 h 76.374 c 2.135,0 3.872,-1.765 3.872,-3.9 v -28.523 c 0,-2.136 -1.737,-3.901 -3.872,-3.901 H 0 c -2.135,0 -3.872,1.765 -3.872,3.901 V -3.9 C -3.872,-1.765 -2.135,0 0,0 Z"
             style="fill:none;stroke:#000000;stroke-width:15;stroke-linecap:round;stroke-linejoin:round;stroke-miterlimit:10;stroke-dasharray:none;stroke-opacity:1"
             id="path255" /></g><g
           id="g257"
           transform="translate(313.5156,354.8506)"><path
             d="m 0,0 h 76.345 c 2.135,0 3.872,-1.765 3.872,-3.9 v -28.523 c 0,-2.136 -1.737,-3.901 -3.872,-3.901 H 0 c -2.164,0 -3.9,1.765 -3.9,3.901 V -3.9 C -3.9,-1.765 -2.164,0 0,0 Z"
             style="fill:none;stroke:#000000;stroke-width:15;stroke-linecap:round;stroke-linejoin:round;stroke-miterlimit:10;stroke-dasharray:none;stroke-opacity:1"
             id="path259" /></g><g
           id="g261"
           transform="translate(140.585,171.6104)"><path
             d="m 0,0 h 230.403 c 3.331,0 6.063,-2.732 6.063,-6.063 v -44.693 c 0,-3.359 -2.732,-6.092 -6.063,-6.092 H 0 c -3.359,0 -6.092,2.733 -6.092,6.092 V -6.063 C -6.092,-2.732 -3.359,0 0,0 Z"
             style="fill:none;stroke:#000000;stroke-width:15;stroke-linecap:round;stroke-linejoin:round;stroke-miterlimit:10;stroke-dasharray:none;stroke-opacity:1"
             id="path263" /></g><g
           id="g265"
           transform="translate(237.853,57.9146)"><path
             d="m 0,0 h -84.401 c -6.69,0 -12.184,5.494 -12.184,12.184 v 44.664 m 229.008,0 V 12.184 C 132.423,5.494 126.93,0 120.24,0 H 27.526"
             style="fill:none;stroke:#000000;stroke-width:15;stroke-linecap:round;stroke-linejoin:round;stroke-miterlimit:10;stroke-dasharray:none;stroke-opacity:1"
             id="path267" /></g><g
           id="g269"
           transform="translate(255.7866,143.2007)"><path
             d="M 0,0 V -40.992"
             style="fill:none;stroke:#000000;stroke-width:15;stroke-linecap:round;stroke-linejoin:round;stroke-miterlimit:10;stroke-dasharray:none;stroke-opacity:1"
             id="path271" /></g></g></g></g></svg>
