<?xml version="1.0" encoding="iso-8859-1"?>
<!-- Generator: Adobe Illustrator 19.0.0, SVG Export Plug-In . SVG Version: 6.00 Build 0)  -->
<svg version="1.1" id="Layer_1" xmlns="http://www.w3.org/2000/svg" xmlns:xlink="http://www.w3.org/1999/xlink" x="0px" y="0px"
	 viewBox="0 0 512 512" style="enable-background:new 0 0 512 512;" xml:space="preserve">
<g>
	<g>
		<path d="M371.734,328.017c5.117-7.399,9.906-14.891,14.34-22.469c25.918-44.304,39.059-90.192,39.059-136.391
			C425.134,75.884,349.261,0,255.999,0C162.741,0,86.87,75.884,86.87,169.157c0,53.82,18.357,108.076,53.433,158.85
			C75.701,345.283,38.069,376.033,38.067,412.94c0,29.817,25.031,56.252,70.482,74.431C148.255,503.252,200.62,512,256,512
			s107.745-8.746,147.451-24.629c45.451-18.181,70.482-44.614,70.482-74.431C473.931,376.041,436.313,345.295,371.734,328.017z
			 M256.001,116.302c29.177,0,52.832,23.652,52.832,52.832c0,29.178-23.656,52.832-52.832,52.832
			c-29.177,0-52.832-23.654-52.832-52.832C203.169,139.954,226.825,116.302,256.001,116.302z M388.733,450.581
			c-35.137,14.055-82.275,21.795-132.734,21.795s-97.598-7.74-132.734-21.795C95.579,439.508,77.69,424.732,77.69,412.94
			c0.001-15.822,31.232-38.208,89.363-50.595c38.466,44.152,76.496,69.239,78.106,70.292c3.293,2.153,7.066,3.228,10.84,3.228
			c3.772,0,7.548-1.076,10.84-3.228c0.837-0.547,20.778-13.664,46.233-37.376c11.43-10.648,22.072-21.635,31.899-32.91
			c58.114,12.388,89.336,34.77,89.336,50.588C434.307,424.732,416.418,439.506,388.733,450.581z" fill="#FDC440"/>
	</g>
</g>
<g>
</g>
<g>
</g>
<g>
</g>
<g>
</g>
<g>
</g>
<g>
</g>
<g>
</g>
<g>
</g>
<g>
</g>
<g>
</g>
<g>
</g>
<g>
</g>
<g>
</g>
<g>
</g>
<g>
</g>
</svg>
