<?xml version="1.0" encoding="UTF-8" standalone="no"?>
<!-- Created with Inkscape (http://www.inkscape.org/) -->

<svg
   version="1.1"
   id="svg1569"
   xml:space="preserve"
   width="682.66669"
   height="682.66669"
   viewBox="0 0 682.66669 682.66669"
   xmlns="http://www.w3.org/2000/svg"
   xmlns:svg="http://www.w3.org/2000/svg"><defs
     id="defs1573"><clipPath
       clipPathUnits="userSpaceOnUse"
       id="clipPath1583"><path
         d="M 0,512 H 512 V 0 H 0 Z"
         id="path1581" /></clipPath><clipPath
       clipPathUnits="userSpaceOnUse"
       id="clipPath1603"><path
         d="M 0,512 H 512 V 0 H 0 Z"
         id="path1601" /></clipPath></defs><g
     id="g1575"
     transform="matrix(1.3333333,0,0,-1.3333333,0,682.66667)"><g
       id="g1577"><g
         id="g1579"
         clip-path="url(#clipPath1583)"><g
           id="g1585"
           transform="translate(336.1611,71.6289)"><path
             d="M 0,0 -160.322,-64.129"
             style="fill:none;stroke:#000000;stroke-width:15;stroke-linecap:round;stroke-linejoin:round;stroke-miterlimit:10;stroke-dasharray:none;stroke-opacity:1"
             id="path1587" /></g></g></g><g
       id="g1589"
       transform="translate(175.8389,344.1772)"><path
         d="M 0,0 160.322,64.129"
         style="fill:none;stroke:#000000;stroke-width:15;stroke-linecap:round;stroke-linejoin:round;stroke-miterlimit:10;stroke-dasharray:none;stroke-opacity:1"
         id="path1591" /></g><g
       id="g1593"
       transform="translate(336.1611,215.9214)"><path
         d="M 0,0 V 192.385"
         style="fill:none;stroke:#000000;stroke-width:15;stroke-linecap:round;stroke-linejoin:round;stroke-miterlimit:10;stroke-dasharray:none;stroke-opacity:1"
         id="path1595" /></g><g
       id="g1597"><g
         id="g1599"
         clip-path="url(#clipPath1603)"><g
           id="g1605"
           transform="translate(496.4839,376.2417)"><path
             d="m 0,0 v -336.677 l -160.323,32.064 v 96.196"
             style="fill:none;stroke:#000000;stroke-width:15;stroke-linecap:round;stroke-linejoin:round;stroke-miterlimit:10;stroke-dasharray:none;stroke-opacity:1"
             id="path1607" /></g><g
           id="g1609"
           transform="translate(175.8389,199.8833)"><path
             d="m 0,0 v -192.383 l -160.323,32.064 V 176.358 L 0,144.294 V 47.433"
             style="fill:none;stroke:#000000;stroke-width:15;stroke-linecap:round;stroke-linejoin:round;stroke-miterlimit:10;stroke-dasharray:none;stroke-opacity:1"
             id="path1611" /></g><g
           id="g1613"
           transform="translate(15.5161,39.5645)"><path
             d="m 0,0 115.261,115.261 c 9.392,9.392 24.618,9.392 34.01,0 l 83.197,-83.197"
             style="fill:none;stroke:#000000;stroke-width:15;stroke-linecap:round;stroke-linejoin:round;stroke-miterlimit:10;stroke-dasharray:none;stroke-opacity:1"
             id="path1615" /></g><g
           id="g1617"
           transform="translate(219.9272,99.6855)"><path
             d="m 0,0 179.391,179.39 c 9.391,9.392 24.618,9.392 34.009,0 l 63.157,-63.156"
             style="fill:none;stroke:#000000;stroke-width:15;stroke-linecap:round;stroke-linejoin:round;stroke-miterlimit:10;stroke-dasharray:none;stroke-opacity:1"
             id="path1619" /></g><g
           id="g1621"
           transform="translate(475.9424,448.3872)"><path
             d="m 0,0 c 0,-48.097 -56.113,-128.258 -56.113,-128.258 0,0 -56.113,80.161 -56.113,128.258 0,30.99 25.123,56.113 56.113,56.113 C -25.123,56.113 0,30.99 0,0 Z"
             style="fill:none;stroke:#000000;stroke-width:15;stroke-linecap:round;stroke-linejoin:round;stroke-miterlimit:10;stroke-dasharray:none;stroke-opacity:1"
             id="path1623" /></g><g
           id="g1625"
           transform="translate(439.8628,443.8257)"><path
             d="m 0,0 c -2.075,-9.149 -10.256,-15.98 -20.033,-15.98 -11.345,0 -20.542,9.197 -20.542,20.542 0,11.344 9.197,20.541 20.542,20.541"
             style="fill:none;stroke:#000000;stroke-width:15;stroke-linecap:round;stroke-linejoin:round;stroke-miterlimit:10;stroke-dasharray:none;stroke-opacity:1"
             id="path1627" /></g><g
           id="g1629"
           transform="translate(296.0806,175.8389)"><path
             d="m 0,0 -48.784,48.784 c -6.261,6.261 -16.412,6.261 -22.674,0 l -36.76,-36.76 -56.8,56.801 c -6.261,6.26 -16.412,6.26 -22.673,0 l -92.873,-92.873"
             style="fill:none;stroke:#000000;stroke-width:15;stroke-linecap:round;stroke-linejoin:round;stroke-miterlimit:10;stroke-dasharray:none;stroke-opacity:1"
             id="path1631" /></g></g></g></g></svg>
