<svg height="512pt" viewBox="0 -66 512 512" width="512pt" xmlns="http://www.w3.org/2000/svg"><path d="m497 350.632812h-482c-8.285156 0-15 6.71875-15 15.003907 0 8.28125 6.714844 15 15 15h482c8.285156 0 15-6.71875 15-15 0-8.285157-6.714844-15.003907-15-15.003907zm0 0" fill="#51c0fc"/><path d="m124.722656 121.742188c33.566406 0 60.871094-27.308594 60.871094-60.871094 0-33.566406-27.304688-60.871094-60.871094-60.871094-33.5625 0-60.871094 27.304688-60.871094 60.871094 0 33.5625 27.308594 60.871094 60.871094 60.871094zm0 0" fill="#51c0fc"/><path d="m442.207031 274.933594c-6.972656-11.96875-17.515625-18.832032-28.9375-18.832032-.007812 0-.015625 0-.023437 0-11.417969.011719-21.953125 6.882813-28.898438 18.855469l-.09375.160157c-.207031.367187-.414062.738281-.628906 1.113281l-83.746094-145.0625c-8.527344-14.777344-21.289062-23.261719-35.011718-23.277344-.011719 0-.023438 0-.039063 0-13.722656 0-26.507813 8.472656-35.089844 23.277344 0 0-27.324219 47.355469-44.875 77.757812-2.730469-4.722656-4.808593-8.324219-4.863281-8.414062-8.519531-14.785157-21.285156-23.273438-35.015625-23.285157-.007813 0-.015625 0-.027344 0-13.730469 0-26.511719 8.480469-35.070312 23.277344l-68.722657 119.058594-.617187 1.070312h428.027344c-8.695313-14.992187-19.589844-33.886718-26.367188-45.699218zm0 0" fill="#51c0fc"/></svg>