<?xml version="1.0" encoding="UTF-8" standalone="no"?>
<!-- Created with Inkscape (http://www.inkscape.org/) -->

<svg
   version="1.1"
   id="svg1848"
   xml:space="preserve"
   width="682.66669"
   height="682.66669"
   viewBox="0 0 682.66669 682.66669"
   xmlns="http://www.w3.org/2000/svg"
   xmlns:svg="http://www.w3.org/2000/svg"><defs
     id="defs1852"><clipPath
       clipPathUnits="userSpaceOnUse"
       id="clipPath1862"><path
         d="M 0,512 H 512 V 0 H 0 Z"
         id="path1860" /></clipPath></defs><g
     id="g1854"
     transform="matrix(1.3333333,0,0,-1.3333333,0,682.66667)"><g
       id="g1856"><g
         id="g1858"
         clip-path="url(#clipPath1862)"><g
           id="g1864"
           transform="translate(341.7354,475.959)"><path
             d="m 0,0 c -11.256,17.187 -30.684,28.541 -52.764,28.541 h -65.944 c -34.808,0 -63.026,-28.218 -63.026,-63.027 v -47.17 c 0,0 12.751,0.288 20.944,-7.821 1.707,-1.689 4.606,-0.455 4.606,1.946 v 50.076 c 0,11.304 9.164,20.467 20.467,20.467 h 18.598 c 14.389,0 15.051,-12.037 31.384,-12.037 16.238,0 17.001,12.037 31.383,12.037 h 18.598 c 11.304,0 20.467,-9.163 20.467,-20.467 v -50.076 c 0,-2.401 2.899,-3.635 4.606,-1.946 8.194,8.109 20.945,7.821 20.945,7.821 v 47.17"
             style="fill:none;stroke:#000000;stroke-width:15;stroke-linecap:round;stroke-linejoin:round;stroke-miterlimit:10;stroke-dasharray:none;stroke-opacity:1"
             id="path1866" /></g><g
           id="g1868"
           transform="translate(160.001,394.3027)"><path
             d="m 0,0 v -31.928 c 0,-7.681 6.227,-13.908 13.909,-13.908 h 5.26 c 0.434,-20.186 8.916,-39.616 24.241,-52.811 12.338,-10.624 29.68,-19.896 52.589,-20.152 22.909,0.256 40.251,9.528 52.589,20.152 15.325,13.195 23.808,32.625 24.241,52.811 h 5.26 c 7.682,0 13.909,6.227 13.909,13.908 V 0"
             style="fill:none;stroke:#000000;stroke-width:15;stroke-linecap:round;stroke-linejoin:round;stroke-miterlimit:10;stroke-dasharray:none;stroke-opacity:1"
             id="path1870" /></g><g
           id="g1872"
           transform="translate(256,275.5039)"><path
             d="m 0,0 c -16.451,0.184 -30.016,5.027 -40.934,11.671 v -36.655 c 0,-22.607 18.327,-40.934 40.934,-40.934 22.607,0 40.935,18.327 40.935,40.934 V 11.671 C 30.017,5.027 16.451,0.184 0,0 Z"
             style="fill:none;stroke:#000000;stroke-width:15;stroke-linecap:round;stroke-linejoin:round;stroke-miterlimit:10;stroke-dasharray:none;stroke-opacity:1"
             id="path1874" /></g><g
           id="g1876"
           transform="translate(77.1411,111.6108)"><path
             d="m 0,0 v -76.131 c 0,-15.453 12.527,-27.98 27.98,-27.98 h 301.758 c 15.453,0 27.979,12.527 27.979,27.98 V 0"
             style="fill:none;stroke:#000000;stroke-width:15;stroke-linecap:round;stroke-linejoin:round;stroke-miterlimit:10;stroke-dasharray:none;stroke-opacity:1"
             id="path1878" /></g><g
           id="g1880"
           transform="translate(363.0098,7.5)"><path
             d="m 0,0 v 83.402 c 0,11.437 9.271,20.709 20.709,20.709 h 51.14 v 59.836 c 0,5.484 -0.598,10.97 -2.039,16.261 -6.039,22.161 -24.058,39.576 -47.208,44.387 l -22.842,4.746"
             style="fill:none;stroke:#000000;stroke-width:15;stroke-linecap:round;stroke-linejoin:round;stroke-miterlimit:10;stroke-dasharray:none;stroke-opacity:1"
             id="path1882" /></g><g
           id="g1884"
           transform="translate(328.1191,244.0405)"><path
             d="M 0,0 -31.185,6.479"
             style="fill:none;stroke:#000000;stroke-width:15;stroke-linecap:round;stroke-linejoin:round;stroke-miterlimit:10;stroke-dasharray:none;stroke-opacity:1"
             id="path1886" /></g><g
           id="g1888"
           transform="translate(215.0659,250.52)"><path
             d="M 0,0 V 0 L -31.185,-6.479"
             style="fill:none;stroke:#000000;stroke-width:15;stroke-linecap:round;stroke-linejoin:round;stroke-miterlimit:10;stroke-dasharray:none;stroke-opacity:1"
             id="path1890" /></g><g
           id="g1892"
           transform="translate(149.23,236.8408)"><path
             d="m 0,0 -22.841,-4.746 c -23.151,-4.81 -41.17,-22.226 -47.208,-44.387 -1.442,-5.291 -2.04,-10.777 -2.04,-16.261 v -59.836 h 51.14 c 11.438,0 20.71,-9.272 20.71,-20.709 v -83.402"
             style="fill:none;stroke:#000000;stroke-width:15;stroke-linecap:round;stroke-linejoin:round;stroke-miterlimit:10;stroke-dasharray:none;stroke-opacity:1"
             id="path1894" /></g><g
           id="g1896"
           transform="translate(149.1162,154.917)"><path
             d="M 0,0 C -0.704,-17.317 -4.66,-31.504 -11.636,-45.482"
             style="fill:none;stroke:#000000;stroke-width:15;stroke-linecap:round;stroke-linejoin:round;stroke-miterlimit:10;stroke-dasharray:none;stroke-opacity:1"
             id="path1898" /></g><g
           id="g1900"
           transform="translate(148.9907,62.4541)"><path
             d="M 0,0 7.881,8.496 C 27.058,37.295 34.89,63.572 34.89,98.171 v 86.469 c 0,5.825 -5.504,10.081 -11.142,8.614 L 6.9,188.873 c -3.922,-1.02 -6.661,-4.561 -6.661,-8.615 v -52.687"
             style="fill:none;stroke:#000000;stroke-width:15;stroke-linecap:round;stroke-linejoin:round;stroke-miterlimit:10;stroke-dasharray:none;stroke-opacity:1"
             id="path1902" /></g><g
           id="g1904"
           transform="translate(374.5195,109.4351)"><path
             d="m 0,0 c -7.728,15.484 -11.75,31.224 -11.75,51.19 v 82.087 c 0,4.054 -2.738,7.595 -6.661,8.615 l -16.847,4.381 C -40.896,147.74 -46.4,143.484 -46.4,137.659 V 51.19 c 0,-34.599 7.832,-60.876 27.008,-89.675 l 7.882,-8.496"
             style="fill:none;stroke:#000000;stroke-width:15;stroke-linecap:round;stroke-linejoin:round;stroke-miterlimit:10;stroke-dasharray:none;stroke-opacity:1"
             id="path1906" /></g><g
           id="g1908"
           transform="translate(215.0659,250.52)"><path
             d="M 0,0 V 0 36.655"
             style="fill:none;stroke:#000000;stroke-width:15;stroke-linecap:round;stroke-linejoin:round;stroke-miterlimit:10;stroke-dasharray:none;stroke-opacity:1"
             id="path1910" /></g><g
           id="g1912"
           transform="translate(143.8472,287.3745)"><path
             d="m 0,0 c -16.045,-13.702 -26.23,-34.065 -26.23,-56.819 v 0 c 0,-0.323 0.02,-0.64 0.024,-0.962"
             style="fill:none;stroke:#000000;stroke-width:15;stroke-linecap:round;stroke-linejoin:round;stroke-miterlimit:10;stroke-dasharray:none;stroke-opacity:1"
             id="path1914" /></g><g
           id="g1916"
           transform="translate(394.3594,229.5937)"><path
             d="m 0,0 c 0.004,0.321 0.024,0.639 0.024,0.961 v 0.001 c 0,22.753 -10.185,43.117 -26.23,56.819"
             style="fill:none;stroke:#000000;stroke-width:15;stroke-linecap:round;stroke-linejoin:round;stroke-miterlimit:10;stroke-dasharray:none;stroke-opacity:1"
             id="path1918" /></g><g
           id="g1920"
           transform="translate(296.9346,287.1753)"><path
             d="M 0,0 V -36.655"
             style="fill:none;stroke:#000000;stroke-width:15;stroke-linecap:round;stroke-linejoin:round;stroke-miterlimit:10;stroke-dasharray:none;stroke-opacity:1"
             id="path1922" /></g><g
           id="g1924"
           transform="translate(297.2617,287.3745)"><path
             d="m 0,0 h 102.439 c 15.477,0 28.024,12.547 28.024,28.024 v 22.211 c 0,15.477 -12.547,28.024 -28.024,28.024 H 54.737"
             style="fill:none;stroke:#000000;stroke-width:15;stroke-linecap:round;stroke-linejoin:round;stroke-miterlimit:10;stroke-dasharray:none;stroke-opacity:1"
             id="path1926" /></g><g
           id="g1928"
           transform="translate(160.001,365.6333)"><path
             d="m 0,0 h -47.702 c -15.477,0 -28.024,-12.546 -28.024,-28.023 v -22.212 c 0,-15.477 12.547,-28.024 28.024,-28.024 H 54.737"
             style="fill:none;stroke:#000000;stroke-width:15;stroke-linecap:round;stroke-linejoin:round;stroke-miterlimit:10;stroke-dasharray:none;stroke-opacity:1"
             id="path1930" /></g></g></g></g></svg>
