<svg id="Capa_1" enable-background="new 0 0 512 512" height="512" viewBox="0 0 512 512" width="512" xmlns="http://www.w3.org/2000/svg"><g><g><path d="m451.218 60.782c-39.196-39.196-91.386-60.782-146.959-60.782-8.284 0-15 6.716-15 15s6.716 15 15 15c47.559 0 92.216 18.466 125.746 51.995 33.53 33.53 51.995 78.187 51.995 125.746 0 8.284 6.716 15 15 15s15-6.716 15-15c0-55.572-21.586-107.763-60.782-146.959z"/><path d="m304.259 77.097c-8.284-.001-15 6.715-15 14.999s6.716 15 15 15c26.933 0 52.22 10.455 71.205 29.44 18.984 18.985 29.439 44.272 29.44 71.205 0 8.284 6.716 15 15 15s15-6.716 15-15c0-34.946-13.576-67.767-38.226-92.418-24.652-24.651-57.473-38.227-92.419-38.226z"/><path d="m342.136 169.864c-10.149-10.149-23.642-15.721-37.996-15.689-8.284.018-14.985 6.749-14.967 15.033.018 8.283 6.748 14.986 15.033 14.967 6.314-.014 12.251 2.438 16.716 6.902 4.451 4.451 6.902 10.369 6.902 16.663.001 8.283 6.716 15 15 15.001 8.285-.001 15-6.715 15.001-15 0-14.307-5.572-27.759-15.689-37.877z"/></g><g><path d="m448.223 456.624 14.711-14.711c15.794-15.794 15.794-41.492 0-57.286l-94.483-94.483c-15.794-15.794-41.492-15.794-57.286 0l-14.711 14.711z"/><path d="m207.144 215.546 14.711-14.711c15.794-15.794 15.793-41.492-.001-57.286l-94.483-94.483c-15.794-15.794-41.492-15.794-57.286 0l-14.709 14.711z"/><path d="m34.502 85.329c-48.53 57.025-45.865 142.704 8.006 196.575l187.589 187.589c53.871 53.871 139.55 56.535 196.575 8.005z"/></g></g></svg>