<svg id="Capa_1" enable-background="new 0 0 512 512" height="512" viewBox="0 0 512 512" width="512" xmlns="http://www.w3.org/2000/svg"><g><path d="m509.16 103.546c-2.92-5.263-7.716-9.075-13.503-10.732l-278.47-79.744c-11.947-3.424-24.448 3.515-27.869 15.461l-19.702 68.801h-147.08c-12.427 0-22.536 10.11-22.536 22.536v270.048c0 4.149 3.363 7.512 7.512 7.512s7.512-3.363 7.512-7.512v-270.048c0-4.142 3.37-7.512 7.512-7.512h295.673c4.142 0 7.512 3.37 7.512 7.512v357.401c0 4.142-3.37 7.512-7.512 7.512h-295.673c-4.142 0-7.512-3.37-7.512-7.512v-53.059c0-4.149-3.363-7.512-7.512-7.512s-7.512 3.363-7.512 7.512v53.059c0 12.426 10.109 22.536 22.536 22.536h295.673c12.427 0 22.536-10.11 22.536-22.536v-10.167l44.112 12.632c5.844 1.642 11.556.989 17.137-1.958 5.264-2.92 9.076-7.715 10.733-13.503l30.612-106.9c1.142-3.988-1.165-8.148-5.153-9.289-3.99-1.145-8.147 1.166-9.29 5.154l-30.612 106.9c-.552 1.929-1.823 3.528-3.578 4.501-1.754.972-3.782 1.204-5.712.652l-48.248-13.816v-71.298l23.993 6.871c8.63 2.472 19.392-3.437 21.884-12.141l55.045-192.221c1.301-4.544.755-9.323-1.538-13.456-2.293-4.134-6.059-7.127-10.603-8.428l-88.781-25.424v-15.51c0-12.426-10.109-22.536-22.536-22.536h-132.967l18.517-64.665c1.141-3.982 5.308-6.294 9.29-5.154l278.471 79.744c1.929.553 3.527 1.823 4.501 3.578.973 1.755 1.205 3.783.653 5.712l-58.608 204.661c-1.142 3.988 1.165 8.148 5.153 9.289 3.809 1.036 6.906-.682 9.29-5.154l58.607-204.661c1.659-5.786.964-11.872-1.957-17.136zm-83.769 71.699c.926.265 1.401.912 1.601 1.273.201.362.497 1.106.232 2.033l-55.045 192.221c-.405 1.416-1.892 2.235-3.305 1.833l-28.129-8.055v-213.544z"/><path d="m96.562 180.899h-29.167c-9.758 0-17.697 7.939-17.697 17.696v199.946c0 9.759 7.939 17.697 17.697 17.697h205.956c9.758 0 17.696-7.939 17.696-17.697v-199.946c0-9.758-7.939-17.696-17.696-17.696h-141.033c-4.149 0-7.512 3.363-7.512 7.512s3.363 7.512 7.512 7.512h141.033c1.474 0 2.672 1.199 2.672 2.672v199.946c0 1.474-1.199 2.673-2.672 2.673h-205.956c-1.474 0-2.673-1.199-2.673-2.673v-199.946c0-1.473 1.199-2.672 2.673-2.672h29.166c4.149 0 7.512-3.363 7.512-7.512.001-4.15-3.363-7.512-7.511-7.512z"/><path d="m197.919 215.369h-54.087c-19.52 0-35.401 15.881-35.401 35.401v34.699c-10.894 2.857-17.163 11.531-16.296 23.306.878 11.926 8.743 24.546 19.064 27.984 7.452 26.375 31.696 45.008 59.552 45.008 27.954 0 52.274-18.765 59.631-45.29 10.065-3.85 17.392-16.353 18.227-27.702.841-11.409-5.018-19.907-15.291-23.025v-34.98c.001-19.52-15.879-35.401-35.399-35.401zm-54.087 15.024h54.087c11.236 0 20.376 9.141 20.376 20.376v8.038c-.039-.038-.075-.078-.114-.116-9.018-8.815-20.932-13.669-33.545-13.669h-27.769c-12.553 0-24.408 4.811-33.411 13.545v-7.798c-.001-11.235 9.14-20.376 20.376-20.376zm89.794 77.278c-.583 7.928-6.367 14.94-9.553 14.973-3.574.038-6.626 2.589-7.298 6.099-4.217 22.019-23.573 37.999-46.024 37.999-22.46 0-41.817-15.99-46.027-38.019-.681-3.561-3.796-6.102-7.373-6.102-.174 0-.349.006-.525.018-3.13.267-9.127-7.096-9.707-14.968-.179-2.441-.554-7.521 8.007-8.152 4.171-.28 8.65-2.184 8.774-7.304.432-17.738 15.221-32.17 32.966-32.17h27.769c18.038 0 32.519 14.124 32.966 32.155.102 4.098 3.438 7.34 7.573 7.325l.21-.003c.088-.001.177-.003.267-.002 8.529.645 8.155 5.714 7.975 8.151z"/><circle cx="147.671" cy="301.194" r="7.304"/><ellipse cx="193.822" cy="301.194" rx="7.304" ry="7.304" transform="matrix(.383 -.924 .924 .383 -158.617 365.001)"/><path d="m187.186 328.802h-32.483c-1.707 0-2.887 1.718-2.269 3.309 2.88 7.412 10.081 12.667 18.511 12.667s15.631-5.255 18.51-12.667c.618-1.591-.562-3.309-2.269-3.309z"/></g></svg>