<?xml version="1.0" encoding="UTF-8"?>
<svg xmlns="http://www.w3.org/2000/svg" xmlns:xlink="http://www.w3.org/1999/xlink" version="1.1" id="Capa_1" x="0px" y="0px" viewBox="0 0 507.737 507.737" style="enable-background:new 0 0 507.737 507.737;" xml:space="preserve" width="512" height="512">
<g>
	<path style="fill:none;stroke:#FDC440;stroke-width:15;stroke-linecap:round;stroke-linejoin:round;stroke-miterlimit:10;" d="&#10;&#9;&#9;M349.632,429.386l-43.506,10.671c-7.453,1.828-15.091-2.175-17.848-9.349l-18.213-37.295l62.624-15.361l24.012,31.138&#10;&#9;&#9;C362.327,416.501,358.583,427.19,349.632,429.386z"/>
	<path style="fill:none;stroke:#FDC440;stroke-width:15;stroke-linecap:round;stroke-linejoin:round;stroke-miterlimit:10;" d="&#10;&#9;&#9;M97.452,498.806L46.109,472.97c-6.821-3.517-9.951-11.552-7.317-18.772l22.291-34.777l57.311,29.55l-2.345,39.251&#10;&#9;&#9;C115.488,497.429,105.645,503.03,97.452,498.806z"/>
	<path style="fill:none;stroke:#FDC440;stroke-width:15;stroke-linecap:round;stroke-linejoin:round;stroke-miterlimit:10;" d="&#10;&#9;&#9;M482.852,309.102l-41.651,22.319c-5.579,2.989-9.566,8.274-10.911,14.458l-0.416,1.916c-1.91,8.787-8.441,15.844-17.055,18.428&#10;&#9;&#9;l-28.096,8.429c-8.585,2.576-14.69,10.184-15.344,19.123l-0.981,13.405c-0.782,10.687-8.36,19.654-18.767,22.207l-36.492,8.951&#10;&#9;&#9;c-3.759,0.922-7.202,2.837-9.968,5.545l-57.579,56.355"/>
	<path style="fill:none;stroke:#FDC440;stroke-width:15;stroke-linecap:round;stroke-linejoin:round;stroke-miterlimit:10;" d="&#10;&#9;&#9;M85.407,293.397l-7.599-25.534c-3.91-13.14-2.774-27.266,3.186-39.611l0,0l75.259,31.859l15.971,69.812&#10;&#9;&#9;c2.677,11.7,0.84,23.979-5.143,34.383l-48.687,84.665l-57.311-29.55l35.22-61.616c3.473-6.077,4.309-13.31,2.313-20.019&#10;&#9;&#9;l-3.287-11.044"/>
	<path style="fill:none;stroke:#FDC440;stroke-width:15;stroke-linecap:round;stroke-linejoin:round;stroke-miterlimit:10;" d="&#10;&#9;&#9;M156.254,260.11l93.979,19.661c12.386,2.591,23.266,9.929,30.309,20.442l52.148,77.839l-62.624,15.361l-30.482-50.288&#10;&#9;&#9;c-4.102-6.767-10.772-11.583-18.487-13.346l-51.6-11.796"/>
	<path style="fill:none;stroke:#FDC440;stroke-width:15;stroke-linecap:round;stroke-linejoin:round;stroke-miterlimit:10;" d="&#10;&#9;&#9;M80.995,228.252l64.759-133.848l66.97,32.393c15.493,7.494,21.977,26.128,14.483,41.62l-2.01,4.155"/>
	
		<line style="fill:none;stroke:#FDC440;stroke-width:15;stroke-linecap:round;stroke-linejoin:round;stroke-miterlimit:10;" x1="196.716" y1="231.457" x2="180.411" y2="265.164"/>
	<path style="fill:none;stroke:#FDC440;stroke-width:15;stroke-linecap:round;stroke-linejoin:round;stroke-miterlimit:10;" d="&#10;&#9;&#9;M64.205,70.965c16.983-18.704,44.864-24.865,68.763-13.306l0,0c13.678,6.616,19.402,23.067,12.787,36.744L94.663,200.032&#10;&#9;&#9;c-6.616,13.678-23.067,19.402-36.744,12.787l0,0c-29.079-14.065-41.25-49.04-27.184-78.119l15.571-32.192"/>
	<path style="fill:none;stroke:#FDC440;stroke-width:15;stroke-linecap:round;stroke-linejoin:round;stroke-miterlimit:10;" d="&#10;&#9;&#9;M309.54,157.595L309.54,157.595c-6.758-12.782-22.598-17.666-35.381-10.908l-51.622,27.292c-3.217,1.701-7.205,0.472-8.906-2.746&#10;&#9;&#9;l-27.292-51.622c-6.758-12.782-22.598-17.666-35.381-10.908l0,0c-12.782,6.758-17.666,22.598-10.908,35.381l30.372,57.448&#10;&#9;&#9;l6.334,11.98c10.018,18.948,33.499,26.188,52.448,16.17l69.428-36.706C311.414,186.218,316.298,170.377,309.54,157.595z"/>
	
		<line style="fill:none;stroke:#FDC440;stroke-width:15;stroke-linecap:round;stroke-linejoin:round;stroke-miterlimit:10;" x1="298.632" y1="192.976" x2="384.724" y2="374.651"/>
	
		<line style="fill:none;stroke:#FDC440;stroke-width:15;stroke-linecap:round;stroke-linejoin:round;stroke-miterlimit:10;" x1="209.219" y1="162.885" x2="163.526" y2="188.487"/>
	<path style="fill:none;stroke:#FDC440;stroke-width:15;stroke-linecap:round;stroke-linejoin:round;stroke-miterlimit:10;" d="&#10;&#9;&#9;M206.84,88.65L206.84,88.65c-18.725-9.057-26.562-31.578-17.505-50.303l6.044-12.496c7.813-16.153,27.242-22.914,43.396-15.101&#10;&#9;&#9;l9.311,4.504c16.153,7.813,22.914,27.242,15.101,43.396l-6.044,12.496C248.086,89.87,225.565,97.707,206.84,88.65z"/>
</g>















</svg>
