<svg id="Capa_1" enable-background="new 0 0 512.007 512.007" height="512" viewBox="0 0 512.007 512.007" width="512" xmlns="http://www.w3.org/2000/svg"><g><path d="m503.855 497.007h-79.188v-174.956l20.98-16.112c6.848-5.25 15.366-8.142 23.986-8.142h34.221c4.143 0 7.5-3.358 7.5-7.5s-3.357-7.5-7.5-7.5h-34.221c-11.901 0-23.661 3.991-33.118 11.242l-11.849 9.099v-119.544c0-9.769-5.381-18.644-14.043-23.162l-15.786-8.232c-3.672-1.916-8.203-.491-10.118 3.182-1.915 3.672-.49 8.203 3.183 10.118l15.785 8.232c3.688 1.923 5.979 5.703 5.979 9.862v6.311c-1.247-.365-27.777-6.181-28.635-6.404-.341-.035-.299-.129-1.63-.179h-55.927l5.135-20.567c3.242-12.98 1.235-26.444-5.65-37.912-3.723-6.202-8.64-11.407-14.416-15.401 11.078-5.889 19.72-16.26 22.99-29.361l3.71-14.861 11.029 2.753c.609.152 1.221.225 1.822.225 3.361 0 6.42-2.276 7.271-5.686 1.004-4.019-1.441-8.09-5.46-9.093l-11.029-2.753.75-3.003c4.484-17.964-6.487-36.229-24.456-40.714l-23.772-5.934c-8.704-2.173-17.734-.828-25.424 3.787-7.691 4.616-13.125 11.952-15.297 20.657l-8.093 32.418c-2.941 11.902-.949 25.858 6.479 36.745-7.588.9-14.803 3.531-21.13 7.576-.311-3.474-1.402-6.86-3.25-9.938-3.217-5.357-8.327-9.141-14.39-10.654l-16.306-4.07c-12.521-3.121-25.238 4.517-28.361 17.031l-14.671 58.772-7.317-1.913c-12.868-3.362-26.117 4.36-29.526 17.22l-7.82 29.496c-3.389 12.784 3.897 25.714 16.588 29.437l57.558 14.974v21.237c0 10.068 2.883 19.728 7.964 28.018l14.36 38.852c.991 2.674.217 5.732-1.933 7.614l-87.734 76.944-107.441 37.978c-3.905 1.381-5.952 5.666-4.571 9.571 1.089 3.079 3.981 5.002 7.071 5.002.829 0 1.674-.139 2.5-.431l78.2-27.646c-2.843 7.271-1.653 15.841 3.84 22.105l30.879 35.209h-115.419c-4.143 0-7.5 3.358-7.5 7.5s3.357 7.5 7.5 7.5h495.701c4.143 0 7.5-3.358 7.5-7.5s-3.357-7.499-7.5-7.499zm-116.953-296.831 18.87 4.201c2.293.511 3.895 2.508 3.895 4.857v7.5c0 2.601-2.116 4.716-4.717 4.716h-18.048zm-76.802-67.612c4.822 8.032 6.229 17.463 3.957 26.556l-5.2 20.828-30.146-65.807 9.817 2.452c9.089 2.268 16.75 7.94 21.572 15.971zm-44.87-103.473c2.398-8.777 11.64-16.353 22.535-13.523l23.772 5.934c9.944 2.482 16.017 12.588 13.536 22.527l-.75 3.003-59.843-14.938zm-8.092 32.418 3.71-14.861 59.844 14.939-3.71 14.861c-4.118 16.499-20.892 26.573-37.391 22.452-7.986-1.994-14.726-6.983-18.973-14.043-4.239-7.063-5.476-15.355-3.48-23.348zm2.884 48.14 9.286 19.742c-3.784-.042-7.566.731-11.124 2.322-6.477 2.897-11.438 8.143-13.97 14.771s-2.33 13.846.566 20.323l14.318 32.012c-15.753 3.821-39.133-1.104-52.687-5.075l14.462-57.934c4.426-17.615 21.535-28.774 39.149-26.161zm5.768 102.856c6.793 10.765 17.344 18.57 29.452 22.001l-5.009 20.078-42.399-10.58-50.805-12.682 5.751-23.031c9.605 2.773 26.551 6.864 42.961 6.864 6.984 0 13.869-.749 20.049-2.65zm-130.382 3.113-8.306-2.437c-4.828-1.416-7.601-6.335-6.311-11.199l7.82-29.496c1.289-3.773 5.581-8.062 11.233-6.551l7.477 1.955zm49.089 3.973c-.55 2.155-1.9 3.972-3.809 5.119-1.923 1.154-4.18 1.489-6.354.947l-24.449-6.103 5.181-20.756 6.68-26.761 8.838 2.757c.743.232 1.496.342 2.235.342 3.195 0 6.156-2.058 7.158-5.269 1.233-3.954-.973-8.16-4.927-9.393l-9.665-3.015 14.793-59.261c1.121-4.491 5.688-7.233 10.176-6.11l16.306 4.07c2.175.543 4.009 1.9 5.163 3.822 1.153 1.922 1.49 4.178.947 6.353zm26.218 129.959c6.796-5.951 9.252-15.64 6.114-24.103l-4.671-12.638c2.079 1.062 42.859 16.445 45.528 17.543l-.29 19.227c-.12 8.328-3.786 16.264-10.057 21.769l-93.95 82.385-26.721-30.472zm61.678.251.207-13.735 17.531 6.715c2.665 1.021 4.456 3.624 4.456 6.478v37.189h-41.717l4.361-3.824c9.456-8.302 14.982-20.268 15.162-32.823zm-135.781 139.323-32.641-37.217c-2.389-2.724-2.115-6.884.608-9.272l10.809-9.479 28.842 32.886zm165.476-67.373c-4.143 0-7.5 3.358-7.5 7.5v67.756h-144.834c.093-.238 9.426-28.401 9.426-28.401l76.586-67.159h66.283c.013 0 .026.002.039.002 4.143 0 7.5-3.358 7.5-7.5v-44.691c0-9.025-5.663-17.258-14.091-20.486l-75.161-28.789c-14.893-5.704-24.898-20.251-24.898-36.198v-17.396l46.619 11.633 49.997 12.48 48.33 43.682c6.186 5.59 9.733 13.579 9.733 21.918v124.958h-40.529v-31.809c0-4.142-3.358-7.5-7.5-7.5zm14.07 75.256c-3.623 0-6.57-2.947-6.57-6.57v-14.377h43.741l12.332 20.947zm93.509 0h-27.959c-.21-1.852-.805-3.676-1.8-5.365l-14.791-25.125v-98.735l44.55-34.212zm-44.55-148.138v-12.767c0-12.572-5.35-24.618-14.676-33.046l-46.383-41.921 6.158-24.684h33.922c4.143 0 7.5-3.358 7.5-7.5s-3.357-7.5-7.5-7.5h-34.951c-14.279 0-27.283-8.419-33.125-21.441l-17.589-39.326c-1.262-2.82-1.349-5.962-.247-8.847 1.103-2.886 3.262-5.169 6.082-6.431s5.963-1.348 8.847-.247c2.871 1.096 5.145 3.242 6.41 6.04l.05.107 17.555 39.25c2.118 4.717 6.835 7.766 12.018 7.766h62.715v30.629c0 4.142 3.357 7.5 7.5 7.5h30.265v78.206z"/></g></svg>