<svg id="Layer_1" enable-background="new 0 0 512 512" height="512" viewBox="0 0 512 512" width="512" xmlns="http://www.w3.org/2000/svg"><g><path d="m256 434.803c94.798 0 171.922-77.124 171.922-171.922 0-34.413-10.022-67.325-29.048-95.652 24.686-5.167 45.967-21.15 57.792-44.249 1.887-3.686.428-8.204-3.258-10.091-3.685-1.887-8.203-.428-10.091 3.258-11.964 23.372-35.693 37.891-61.927 37.891-38.334 0-69.521-31.187-69.521-69.521s31.187-69.521 69.521-69.521 69.521 31.187 69.521 69.521c0 4.141 3.357 7.498 7.498 7.498s7.498-3.357 7.498-7.498c0-46.603-37.914-84.517-84.517-84.517s-84.517 37.914-84.517 84.516c0 3.914.29 7.761.808 11.535-13.573-3.38-27.553-5.092-41.681-5.092-34.751.029-67.034 10.289-94.176 28.163-46.788 30.754-77.746 83.705-77.746 143.759 0 5.913.314 11.854.915 17.728-27.872 9.278-48.033 35.589-48.033 66.537 0 27.611 34.407 84.292 54.916 115.622 3.371 5.149 9.056 8.224 15.207 8.224s11.836-3.074 15.207-8.224c10.231-15.629 23.92-37.567 35.071-59.058 28.974 20.366 62.926 31.093 98.639 31.093zm-15.693-315.626 11.708 13.425c3.11 3.566 2.925 8.98-.421 12.326l-24.042 24.042c-4.269 4.268-9.944 6.619-15.98 6.619h-24.363c-9.068 0-17.797 2.733-25.245 7.904l-18.931 13.144c-.123.084-.376.261-.783.049-.406-.212-.406-.522-.406-.671v-25.664c0-6.501 2.531-12.612 7.128-17.21l22.278-22.278c18.942-12.202 40.667-20.437 63.993-23.533.412 4.298 2.118 8.469 5.064 11.847zm-141.234 143.704c0-33.037 10.271-63.716 27.774-89.029v22.162c0 5.883 3.238 11.232 8.451 13.959 5.198 2.721 11.443 2.344 16.286-1.019l18.931-13.144c4.925-3.419 10.697-5.226 16.693-5.226h24.363c10.042 0 19.483-3.91 26.583-11.011l24.043-24.042c8.899-8.9 9.39-23.301 1.118-32.786l-11.708-13.424c-.81-.929-1.293-2.067-1.44-3.247 1.936-.071 3.878-.12 5.831-.12 15.588 0 30.971 2.284 45.733 6.774 11.641 32.769 42.945 56.304 79.657 56.304.177 0 .353-.008.53-.009.184.363.392.719.641 1.059 14.905 20.292 24.537 43.424 28.418 67.93l-3.735 2.511c-3.541 2.381-7.668 3.639-11.935 3.639-8.408 0-16.067-4.956-19.513-12.626l-10.276-22.878c-1.966-4.378-3.279-9.009-3.903-13.765-.539-4.106-4.307-6.991-8.409-6.459-4.106.539-6.998 4.303-6.46 8.409.814 6.206 2.528 12.248 5.093 17.959l10.276 22.879c5.86 13.047 18.888 21.477 33.191 21.477 6.125 0 12.072-1.541 17.402-4.451.138 2.713.215 5.437.215 8.173 0 86.529-70.397 156.926-156.926 156.926-33.378 0-65.064-10.267-91.913-29.726 7.749-16.607 13.118-32.037 13.118-42.934 0-38.666-31.457-70.123-70.123-70.123-2.476 0-4.921.133-7.332.385-.438-4.82-.674-9.683-.674-14.527zm10.67 191.675c-.821 1.254-2.019 1.441-2.661 1.441s-1.84-.187-2.661-1.441c-32.853-50.186-52.467-90.338-52.467-107.409 0-30.397 24.73-55.127 55.128-55.127 30.397 0 55.127 24.73 55.127 55.127.001 17.07-19.613 57.224-52.466 107.409z" fill="#FDC440" /><path d="m184.577 289.982 4.51 3.192c5.333 3.776 8.374 9.928 8.133 16.458l-2.6 70.681c-.302 8.193 3.506 15.924 10.185 20.68 8.326 5.93 19.559 5.991 27.95.162l48.617-33.776c7.782-5.406 14.503-12.069 19.977-19.802l31.326-44.252c4.421-6.245 6.145-13.837 4.855-21.378s-5.439-14.129-11.684-18.55l-78.286-55.42c-8.353-5.913-18.508-8.219-28.598-6.495-10.089 1.726-18.901 7.276-24.815 15.63l-17.747 25.069c-10.922 15.434-7.255 36.876 8.177 47.801zm4.065-39.135 17.747-25.069c3.599-5.084 8.963-8.463 15.103-9.513 1.33-.227 2.66-.34 3.981-.34 4.783 0 9.441 1.472 13.425 4.293l78.286 55.419c2.976 2.107 4.953 5.246 5.567 8.839.615 3.593-.207 7.211-2.314 10.186l-31.327 44.252c-4.464 6.308-9.947 11.741-16.294 16.151l-48.616 33.776c-3.213 2.232-7.511 2.206-10.696-.062-2.556-1.82-4.013-4.778-3.897-7.914l2.6-70.681c.427-11.604-4.977-22.539-14.455-29.249l-4.51-3.193c-8.684-6.146-10.748-18.212-4.6-26.895z" fill="#FDC440"/><path d="m44.961 166.597c1.074.535 2.214.788 3.337.788 2.755 0 5.406-1.523 6.717-4.156 38.246-76.789 115.259-124.491 200.985-124.491.479 0 .961.012 1.441.015l-10.271 10.026c-2.963 2.893-3.02 7.639-.127 10.603 2.895 2.965 7.642 3.018 10.603.127l22.73-22.189c2.895-2.826 3.025-7.439.296-10.424l-21.434-23.443c-2.795-3.057-7.537-3.269-10.593-.474-3.056 2.794-3.269 7.536-.474 10.593l9.313 10.187c-.494-.003-.99-.015-1.484-.015-45.379 0-89.547 12.755-127.728 36.886-37.149 23.478-67.122 56.645-86.681 95.913-1.845 3.706-.337 8.208 3.37 10.054z" fill="#FDC440"/><path d="m31.604 263.134c0-23.69 3.672-47.016 10.913-69.331 1.278-3.939-.879-8.167-4.817-9.446-3.938-1.277-8.167.879-9.446 4.817-7.727 23.812-11.645 48.695-11.645 73.959 0 14.586 1.322 29.197 3.931 43.427.663 3.616 3.817 6.148 7.366 6.148.449 0 .904-.04 1.36-.124 4.073-.746 6.77-4.653 6.023-8.726-2.445-13.34-3.685-27.042-3.685-40.724z" fill="#FDC440"/><path d="m473.271 162.497c-1.742-3.757-6.201-5.39-9.957-3.646-3.757 1.743-5.389 6.2-3.646 9.957 13.753 29.644 20.727 61.381 20.727 94.326 0 123.732-100.663 224.395-224.395 224.395-25.732 0-50.775-4.28-74.666-12.724l13.331-6.664c3.703-1.852 5.205-6.356 3.353-10.06-1.852-3.703-6.356-5.204-10.059-3.353l-28.412 14.204c-3.618 1.809-5.149 6.163-3.459 9.838l13.268 28.861c1.733 3.801 6.269 5.395 9.944 3.681 3.762-1.729 5.41-6.182 3.681-9.944l-5.527-12.023c25.158 8.752 51.5 13.18 78.548 13.18 63.944 0 124.06-24.901 169.275-70.116s70.116-105.331 70.116-169.275c-.002-35.141-7.444-69.001-22.122-100.637z" fill="#FDC440"/><path d="m107.083 309.55c-21.577 0-39.13 17.554-39.13 39.13 0 21.577 17.554 39.13 39.13 39.13s39.13-17.554 39.13-39.13-17.554-39.13-39.13-39.13zm0 63.265c-13.308 0-24.135-10.827-24.135-24.135s10.827-24.135 24.135-24.135 24.135 10.827 24.135 24.135c0 13.309-10.827 24.135-24.135 24.135z" fill="#FDC440"/><path d="m380.998 131.769c4.141 0 7.498-3.357 7.498-7.498v-2.697c9.404-2.984 15.418-11.281 16.795-19.471 1.871-11.127-4.159-21.178-15.004-25.012-5.679-2.008-11.951-4.425-15.4-7.13-.789-.619-1.118-2.235-.799-3.929.17-.901.958-3.912 3.972-4.82 6.255-1.884 10.227 1.272 10.66 1.638l-.11-.098.669.384c7.32 4.198 14.953-4.968 9.498-11.407-1.992-1.837-5.599-4.071-10.281-5.259v-1.708c0-4.141-3.357-7.498-7.498-7.498s-7.498 3.357-7.498 7.498v2.172c-7.265 2.287-12.677 8.514-14.148 16.321-1.375 7.298 1.031 14.389 6.281 18.506 5.141 4.032 12.486 6.934 19.656 9.469 5.44 1.923 5.602 6.081 5.214 8.388-.653 3.885-3.922 8.084-9.555 8.121-5.987.044-7.686-.229-12.191-3.176-3.752-2.456-8.888-1.114-10.89 3.079-1.638 3.429-.32 7.521 2.867 9.591 4.831 3.136 8.503 4.542 12.765 5.128v1.911c.002 4.14 3.359 7.497 7.499 7.497z" fill="#FDC440"/></g></svg>